<svg class="main-svg" xmlns="http://www.w3.org/2000/svg" xmlns:xlink="http://www.w3.org/1999/xlink" width="700" height="500"><rect x="0" y="0" width="700" height="500" style="fill: rgb(255, 255, 255); fill-opacity: 1;"/><defs id="defs-605347"><g class="clips"><clipPath class="axesclip" id="clip605347x"><rect x="80" y="0" width="505" height="500"/></clipPath><clipPath class="axesclip" id="clip605347y"><rect x="0" y="100" width="700" height="320"/></clipPath><clipPath class="axesclip" id="clip605347xy"><rect x="80" y="100" width="505" height="320"/></clipPath><clipPath class="plotclip" id="clip605347xyplot"><rect width="505" height="320"/></clipPath></g></defs><g class="layer-below"><g class="imagelayer"/><g class="shapelayer"/></g><g class="cartesianlayer"><g class="subplot xy"><rect class="bg" x="80" y="100" width="505" height="320" style="stroke-width: 0px; fill: rgb(255, 255, 255); fill-opacity: 1;"/><g class="layer-subplot"><g class="shapelayer"/><g class="imagelayer"/></g><g class="gridlayer" transform="translate(80,100)"><path class="xgrid crisp" d="M0,0v320" transform="translate(132.89,0)" style="stroke: rgb(238, 238, 238); stroke-opacity: 1; stroke-width: 1px;"/><path class="xgrid crisp" d="M0,0v320" transform="translate(265.79,0)" style="stroke: rgb(238, 238, 238); stroke-opacity: 1; stroke-width: 1px;"/><path class="xgrid crisp" d="M0,0v320" transform="translate(398.68,0)" style="stroke: rgb(238, 238, 238); stroke-opacity: 1; stroke-width: 1px;"/><path class="ygrid crisp" d="M0,0h505" transform="translate(0,281.49)" style="stroke: rgb(238, 238, 238); stroke-opacity: 1; stroke-width: 1px;"/><path class="ygrid crisp" d="M0,0h505" transform="translate(0,227.23)" style="stroke: rgb(238, 238, 238); stroke-opacity: 1; stroke-width: 1px;"/><path class="ygrid crisp" d="M0,0h505" transform="translate(0,172.98)" style="stroke: rgb(238, 238, 238); stroke-opacity: 1; stroke-width: 1px;"/><path class="ygrid crisp" d="M0,0h505" transform="translate(0,118.72)" style="stroke: rgb(238, 238, 238); stroke-opacity: 1; stroke-width: 1px;"/><path class="ygrid crisp" d="M0,0h505" transform="translate(0,64.46)" style="stroke: rgb(238, 238, 238); stroke-opacity: 1; stroke-width: 1px;"/><path class="ygrid crisp" d="M0,0h505" transform="translate(0,10.2)" style="stroke: rgb(238, 238, 238); stroke-opacity: 1; stroke-width: 1px;"/></g><g class="overgrid"/><g class="zerolinelayer" transform="translate(80,100)"><path class="xzl zl crisp" d="M0,0v320" transform="translate(0,0)" style="stroke: rgb(68, 68, 68); stroke-opacity: 1; stroke-width: 1px;"/></g><g class="overzero"/><g class="plot" transform="translate(80, 100)" clip-path="url(#clip605347xyplot)"><g class="imagelayer"/><g class="maplayer"/><g class="barlayer"/><g class="boxlayer"/><g class="scatterlayer"><g class="trace scatter trace7ebe67" style="stroke-miterlimit: 2; opacity: 0.7;"><path class="js-line" d="M0,16.02L2.92,158.92L3.06,162.42L5.58,201.26L5.71,202.34L8.37,214.67L8.51,215.01L11.43,219.68L11.56,219.83L17.01,223.88L17.14,223.95L25.91,228.61L26.05,228.67L36.68,232.51L36.81,232.54L81.6,243.2L81.73,243.22L165.19,257.92L165.32,257.94L266.72,271.99L266.85,272L303.27,276.39L303.4,276.4L335.56,279.87L335.69,279.89L398.68,285.89L398.82,285.89L415.03,287.38L415.16,287.39L448.12,290.05L448.25,290.06L478.95,292.47L479.09,292.48L533.71,296.15L533.84,296.16L664.34,304" style="vector-effect: non-scaling-stroke; fill: none; stroke: rgb(22, 96, 167); stroke-opacity: 1; stroke-width: 4px; opacity: 1;"/><g class="points"/></g><g class="trace scatter trace788216" style="stroke-miterlimit: 2; opacity: 0.7;"><path class="js-line" d="M0,16L2.92,156.95L3.06,160.3L5.45,194.62L5.58,195.56L7.84,204.4L7.97,204.65L10.5,206.92L10.63,206.96L15.15,207.28L15.28,207.29L53.29,208.29L53.42,208.3L345.53,207.45L345.66,207.44L664.34,206.17" style="vector-effect: non-scaling-stroke; fill: none; stroke: rgb(205, 12, 24); stroke-opacity: 1; stroke-width: 4px; opacity: 1;"/><g class="points"/></g></g></g><g class="overplot"/><path class="xlines crisp" transform="translate(80,100)" d="M-1,320.5h507" style="fill: none; stroke-width: 1px; stroke: rgb(0, 0, 0); stroke-opacity: 0;"/><path class="ylines crisp" transform="translate(80,100)" d="M-0.5,-1v321" stroke-width="1px" style="fill: none; stroke: rgb(0, 0, 0); stroke-opacity: 0;"/><g class="overlines"/><g class="xaxislayer" transform="translate(80,100)"><g class="xtick" data-bb="9850"><text text-anchor="middle" x="0" y="334" transform="translate(0,0)" style="font-family: 'Open Sans', verdana, arial, sans-serif; font-size: 12px; fill: rgb(68, 68, 68); fill-opacity: 1; visibility: visible; white-space: pre;" data-bb="9845">0</text></g><g class="xtick" data-bb="9851"><text text-anchor="middle" x="0" y="334" transform="translate(132.89,0)" style="font-family: 'Open Sans', verdana, arial, sans-serif; font-size: 12px; fill: rgb(68, 68, 68); fill-opacity: 1; visibility: visible; white-space: pre;" data-bb="9846">1000</text></g><g class="xtick" data-bb="9852"><text text-anchor="middle" x="0" y="334" transform="translate(265.79,0)" style="font-family: 'Open Sans', verdana, arial, sans-serif; font-size: 12px; fill: rgb(68, 68, 68); fill-opacity: 1; visibility: visible; white-space: pre;" data-bb="9847">2000</text></g><g class="xtick" data-bb="9853"><text text-anchor="middle" x="0" y="334" transform="translate(398.68,0)" style="font-family: 'Open Sans', verdana, arial, sans-serif; font-size: 12px; fill: rgb(68, 68, 68); fill-opacity: 1; visibility: visible; white-space: pre;" data-bb="9848">3000</text></g></g><g class="yaxislayer" transform="translate(80,100)"><g class="ytick" data-bb="9855"><text text-anchor="end" x="-2" y="6" transform="translate(0,281.49)" style="font-family: 'Open Sans', verdana, arial, sans-serif; font-size: 12px; fill: rgb(68, 68, 68); fill-opacity: 1; visibility: visible; white-space: pre;">500</text></g><g class="ytick" data-bb="9856"><text text-anchor="end" x="-2" y="6" transform="translate(0,227.23)" style="font-family: 'Open Sans', verdana, arial, sans-serif; font-size: 12px; fill: rgb(68, 68, 68); fill-opacity: 1; visibility: visible; white-space: pre;">1000</text></g><g class="ytick" data-bb="9857"><text text-anchor="end" x="-2" y="6" transform="translate(0,172.98)" style="font-family: 'Open Sans', verdana, arial, sans-serif; font-size: 12px; fill: rgb(68, 68, 68); fill-opacity: 1; visibility: visible; white-space: pre;">1500</text></g><g class="ytick" data-bb="9858"><text text-anchor="end" x="-2" y="6" transform="translate(0,118.72)" style="font-family: 'Open Sans', verdana, arial, sans-serif; font-size: 12px; fill: rgb(68, 68, 68); fill-opacity: 1; visibility: visible; white-space: pre;">2000</text></g><g class="ytick" data-bb="9859"><text text-anchor="end" x="-2" y="6" transform="translate(0,64.46)" style="font-family: 'Open Sans', verdana, arial, sans-serif; font-size: 12px; fill: rgb(68, 68, 68); fill-opacity: 1; visibility: visible; white-space: pre;">2500</text></g><g class="ytick" data-bb="9860"><text text-anchor="end" x="-2" y="6" transform="translate(0,10.2)" style="font-family: 'Open Sans', verdana, arial, sans-serif; font-size: 12px; fill: rgb(68, 68, 68); fill-opacity: 1; visibility: visible; white-space: pre;">3000</text></g></g><g class="overaxes"/></g></g><g class="ternarylayer"/><g class="layer-above"><g class="imagelayer"/><g class="shapelayer"/></g><g class="pielayer"/><g class="glimages"/><g class="geoimages"/><text class="js-plot-link-container" y="491" text-anchor="end" x="693" style="font-family: 'Open Sans', Arial, sans-serif; font-size: 12px; fill: rgb(68, 68, 68); pointer-events: all; visibility: visible;"><tspan class="js-link-to-tool"/><tspan class="js-link-spacer"/><tspan class="js-sourcelinks"/></text><defs id="topdefs-605347"><clipPath id="legend605347"><rect width="93" height="48" x="0" y="0"/></clipPath></defs><g class="infolayer"><g class="g-gtitle"><text class="gtitle" x="350" y="50" text-anchor="middle" style="font-family: 'Open Sans', verdana, arial, sans-serif; font-size: 17px; fill: rgb(68, 68, 68); opacity: 1; font-weight: normal; white-space: pre; visibility: visible;">Cross-Validation Scores</text></g><g class="g-xtitle" data-bb="9849"><text class="xtitle" x="332.5" y="472" text-anchor="middle" style="font-family: 'Open Sans', verdana, arial, sans-serif; font-size: 14px; fill: rgb(68, 68, 68); opacity: 1; font-weight: normal; white-space: pre; visibility: visible;">Number of Trees</text></g><g class="g-ytitle" data-bb="9854"><text class="ytitle" transform="rotate(-90,42,260) translate(0, 0)" x="42" y="260" text-anchor="middle" style="font-family: 'Open Sans', verdana, arial, sans-serif; font-size: 14px; fill: rgb(68, 68, 68); opacity: 1; font-weight: normal; white-space: pre; visibility: visible;">Mean Absolute Error</text></g><g class="legend" pointer-events="all" transform="translate(595.1, 100)"><rect class="bg" shape-rendering="crispEdges" style="stroke: rgb(68, 68, 68); stroke-opacity: 1; fill: rgb(255, 255, 255); fill-opacity: 1; stroke-width: 0px;" width="93" height="48" x="0" y="0"/><g class="scrollbox" transform="translate(0, 0)" clip-path="url(#legend605347)"><g class="groups"><g class="traces" transform="translate(0, 14.5)" style="opacity: 1;"><g class="legendfill"/><g class="legendlines"><path class="js-line" d="M5,0h30" style="fill: none; stroke: rgb(22, 96, 167); stroke-opacity: 1; stroke-width: 4px;"/></g><g class="legendsymbols" style="opacity: 0.7;"><g class="legendpoints"/></g><text class="legendtext user-select-none" x="40" y="4.680000000000001" style="text-anchor: start; font-family: 'Open Sans', verdana, arial, sans-serif; font-size: 12px; fill: rgb(68, 68, 68); fill-opacity: 1; white-space: pre; visibility: visible;" data-bb="9861">CV-Train</text><rect class="legendtoggle" pointer-events="all" style="cursor: pointer; fill: rgb(0, 0, 0); fill-opacity: 0;" x="0" y="-9.5" width="133" height="19"/></g><g class="traces" transform="translate(0, 33.5)" style="opacity: 1;"><g class="legendfill"/><g class="legendlines"><path class="js-line" d="M5,0h30" style="fill: none; stroke: rgb(205, 12, 24); stroke-opacity: 1; stroke-width: 4px;"/></g><g class="legendsymbols" style="opacity: 0.7;"><g class="legendpoints"/></g><text class="legendtext user-select-none" x="40" y="4.680000000000001" style="text-anchor: start; font-family: 'Open Sans', verdana, arial, sans-serif; font-size: 12px; fill: rgb(68, 68, 68); fill-opacity: 1; white-space: pre; visibility: visible;" data-bb="9862">CV-Test</text><rect class="legendtoggle" pointer-events="all" x="0" y="-9.5" width="133" height="19" style="cursor: pointer; fill: rgb(0, 0, 0); fill-opacity: 0;"/></g></g></g><rect class="scrollbar" rx="20" ry="2" width="0" height="0" style="fill: rgb(128, 139, 164); fill-opacity: 1;"/></g></g></svg>