<svg class="main-svg" xmlns="http://www.w3.org/2000/svg" xmlns:xlink="http://www.w3.org/1999/xlink" width="700" height="500"><rect x="0" y="0" width="700" height="500" style="fill: rgb(255, 255, 255); fill-opacity: 1;"/><defs id="defs-57c817"><g class="clips"><clipPath class="axesclip" id="clip57c817x"><rect x="80" y="0" width="505" height="500"/></clipPath><clipPath class="axesclip" id="clip57c817y"><rect x="0" y="100" width="700" height="320"/></clipPath><clipPath class="axesclip" id="clip57c817xy"><rect x="80" y="100" width="505" height="320"/></clipPath><clipPath class="plotclip" id="clip57c817xyplot"><rect width="505" height="320"/></clipPath></g></defs><g class="layer-below"><g class="imagelayer"/><g class="shapelayer"/></g><g class="cartesianlayer"><g class="subplot xy"><rect class="bg" x="80" y="100" width="505" height="320" style="stroke-width: 0px; fill: rgb(255, 255, 255); fill-opacity: 1;"/><g class="layer-subplot"><g class="shapelayer"/><g class="imagelayer"/></g><g class="gridlayer" transform="translate(80,100)"><path class="xgrid crisp" d="M0,0v320" transform="translate(41.1,0)" style="stroke: rgb(238, 238, 238); stroke-opacity: 1; stroke-width: 1px;"/><path class="xgrid crisp" d="M0,0v320" transform="translate(95.43,0)" style="stroke: rgb(238, 238, 238); stroke-opacity: 1; stroke-width: 1px;"/><path class="xgrid crisp" d="M0,0v320" transform="translate(136.53,0)" style="stroke: rgb(238, 238, 238); stroke-opacity: 1; stroke-width: 1px;"/><path class="xgrid crisp" d="M0,0v320" transform="translate(177.63,0)" style="stroke: rgb(238, 238, 238); stroke-opacity: 1; stroke-width: 1px;"/><path class="xgrid crisp" d="M0,0v320" transform="translate(231.96,0)" style="stroke: rgb(238, 238, 238); stroke-opacity: 1; stroke-width: 1px;"/><path class="xgrid crisp" d="M0,0v320" transform="translate(273.06,0)" style="stroke: rgb(238, 238, 238); stroke-opacity: 1; stroke-width: 1px;"/><path class="xgrid crisp" d="M0,0v320" transform="translate(314.15,0)" style="stroke: rgb(238, 238, 238); stroke-opacity: 1; stroke-width: 1px;"/><path class="xgrid crisp" d="M0,0v320" transform="translate(368.48,0)" style="stroke: rgb(238, 238, 238); stroke-opacity: 1; stroke-width: 1px;"/><path class="xgrid crisp" d="M0,0v320" transform="translate(409.58,0)" style="stroke: rgb(238, 238, 238); stroke-opacity: 1; stroke-width: 1px;"/><path class="xgrid crisp" d="M0,0v320" transform="translate(450.68,0)" style="stroke: rgb(238, 238, 238); stroke-opacity: 1; stroke-width: 1px;"/><path class="ygrid crisp" d="M0,0h505" transform="translate(0,300.89)" style="stroke: rgb(238, 238, 238); stroke-opacity: 1; stroke-width: 1px;"/><path class="ygrid crisp" d="M0,0h505" transform="translate(0,265.01)" style="stroke: rgb(238, 238, 238); stroke-opacity: 1; stroke-width: 1px;"/><path class="ygrid crisp" d="M0,0h505" transform="translate(0,237.19)" style="stroke: rgb(238, 238, 238); stroke-opacity: 1; stroke-width: 1px;"/><path class="ygrid crisp" d="M0,0h505" transform="translate(0,214.45)" style="stroke: rgb(238, 238, 238); stroke-opacity: 1; stroke-width: 1px;"/><path class="ygrid crisp" d="M0,0h505" transform="translate(0,195.23)" style="stroke: rgb(238, 238, 238); stroke-opacity: 1; stroke-width: 1px;"/><path class="ygrid crisp" d="M0,0h505" transform="translate(0,178.58)" style="stroke: rgb(238, 238, 238); stroke-opacity: 1; stroke-width: 1px;"/><path class="ygrid crisp" d="M0,0h505" transform="translate(0,163.89)" style="stroke: rgb(238, 238, 238); stroke-opacity: 1; stroke-width: 1px;"/><path class="ygrid crisp" d="M0,0h505" transform="translate(0,150.75)" style="stroke: rgb(238, 238, 238); stroke-opacity: 1; stroke-width: 1px;"/><path class="ygrid crisp" d="M0,0h505" transform="translate(0,64.32)" style="stroke: rgb(238, 238, 238); stroke-opacity: 1; stroke-width: 1px;"/><path class="ygrid crisp" d="M0,0h505" transform="translate(0,13.76)" style="stroke: rgb(238, 238, 238); stroke-opacity: 1; stroke-width: 1px;"/></g><g class="overgrid"/><g class="zerolinelayer" transform="translate(80,100)"/><g class="overzero"/><g class="plot" transform="translate(80, 100)" clip-path="url(#clip57c817xyplot)"><g class="imagelayer"/><g class="maplayer"/><g class="barlayer"/><g class="boxlayer"/><g class="scatterlayer"><g class="trace scatter trace8484c0" style="stroke-miterlimit: 2; opacity: 0.7;"><path class="js-line" d="M0,19.78L41.1,23.54L65.14,27.3L95.43,34.76L106.24,38.46L123.3,45.78L130.28,49.38L147.34,59.88L152.08,63.25L171.38,78.91L174.59,81.79L220.19,122.94L221.62,123.99L233.13,131.33L234.28,131.95L247.51,137.78L248.42,138.08L262.72,142.06L263.42,142.21L358,163.07L358.15,163.12L389.69,174.18L389.77,174.21L403.6,180.79L403.66,180.83L410.7,184.71L410.76,184.74L418.74,189.64L418.79,189.68L427.38,195.53L427.42,195.58L442.49,208.54L442.53,208.58L447.55,213.83L447.58,213.86L453.86,220.21L453.88,220.22L462.5,230.85L462.52,230.89L479.25,254.75L479.27,254.78L494.42,281.24L494.43,281.28L505,304" style="vector-effect: non-scaling-stroke; fill: none; stroke: rgb(22, 96, 167); stroke-opacity: 1; stroke-width: 4px; opacity: 1;"/><g class="points"/></g><g class="trace scatter trace7c8581" style="stroke-miterlimit: 2; opacity: 0.7;"><path class="js-line" d="M0,19.76L41.1,23.51L65.14,27.25L95.43,34.67L106.24,38.35L123.3,45.6L130.28,49.16L147.34,59.49L152.08,62.8L171.38,78.02L174.59,80.79L212.48,112.94L214.1,114.08L227.01,121.67L228.29,122.26L239.73,126.41L240.76,126.68L252.75,128.83L253.58,128.91L271.86,129.69L272.46,129.68L354.66,130.68L354.81,130.69L467.32,129.84L467.35,129.83L499.5,128.83L499.51,128.82L505,128.63" style="vector-effect: non-scaling-stroke; fill: none; stroke: rgb(205, 12, 24); stroke-opacity: 1; stroke-width: 4px; opacity: 1;"/><g class="points"/></g></g></g><g class="overplot"/><path class="xlines crisp" transform="translate(80,100)" d="M-1,320.5h507" style="fill: none; stroke-width: 1px; stroke: rgb(0, 0, 0); stroke-opacity: 0;"/><path class="ylines crisp" transform="translate(80,100)" d="M-0.5,-1v321" stroke-width="1px" style="fill: none; stroke: rgb(0, 0, 0); stroke-opacity: 0;"/><g class="overlines"/><g class="xaxislayer" transform="translate(80,100)"><g class="xtick" data-bb="8899"><text text-anchor="middle" x="0" y="334" transform="translate(0,0)" style="font-family: 'Open Sans', verdana, arial, sans-serif; font-size: 12px; fill: rgb(68, 68, 68); fill-opacity: 1; visibility: visible; white-space: pre;">1</text></g><g class="xtick" data-bb="8900"><text text-anchor="middle" x="0" y="331" transform="translate(41.1,0)" style="font-family: 'Open Sans', verdana, arial, sans-serif; font-size: 9px; fill: rgb(68, 68, 68); fill-opacity: 1; visibility: visible; white-space: pre;">2</text></g><g class="xtick" data-bb="8901"><text text-anchor="middle" x="0" y="331" transform="translate(95.43,0)" style="font-family: 'Open Sans', verdana, arial, sans-serif; font-size: 9px; fill: rgb(68, 68, 68); fill-opacity: 1; visibility: visible; white-space: pre;">5</text></g><g class="xtick" data-bb="8902"><text text-anchor="middle" x="0" y="334" transform="translate(136.53,0)" style="font-family: 'Open Sans', verdana, arial, sans-serif; font-size: 12px; fill: rgb(68, 68, 68); fill-opacity: 1; visibility: visible; white-space: pre;">10</text></g><g class="xtick" data-bb="8903"><text text-anchor="middle" x="0" y="331" transform="translate(177.63,0)" style="font-family: 'Open Sans', verdana, arial, sans-serif; font-size: 9px; fill: rgb(68, 68, 68); fill-opacity: 1; visibility: visible; white-space: pre;">2</text></g><g class="xtick" data-bb="8904"><text text-anchor="middle" x="0" y="331" transform="translate(231.96,0)" style="font-family: 'Open Sans', verdana, arial, sans-serif; font-size: 9px; fill: rgb(68, 68, 68); fill-opacity: 1; visibility: visible; white-space: pre;">5</text></g><g class="xtick" data-bb="8905"><text text-anchor="middle" x="0" y="334" transform="translate(273.06,0)" style="font-family: 'Open Sans', verdana, arial, sans-serif; font-size: 12px; fill: rgb(68, 68, 68); fill-opacity: 1; visibility: visible; white-space: pre;">100</text></g><g class="xtick" data-bb="8906"><text text-anchor="middle" x="0" y="331" transform="translate(314.15,0)" style="font-family: 'Open Sans', verdana, arial, sans-serif; font-size: 9px; fill: rgb(68, 68, 68); fill-opacity: 1; visibility: visible; white-space: pre;">2</text></g><g class="xtick" data-bb="8907"><text text-anchor="middle" x="0" y="331" transform="translate(368.48,0)" style="font-family: 'Open Sans', verdana, arial, sans-serif; font-size: 9px; fill: rgb(68, 68, 68); fill-opacity: 1; visibility: visible; white-space: pre;">5</text></g><g class="xtick" data-bb="8908"><text text-anchor="middle" x="0" y="334" transform="translate(409.58,0)" style="font-family: 'Open Sans', verdana, arial, sans-serif; font-size: 12px; fill: rgb(68, 68, 68); fill-opacity: 1; visibility: visible; white-space: pre;">1000</text></g><g class="xtick" data-bb="8909"><text text-anchor="middle" x="0" y="331" transform="translate(450.68,0)" style="font-family: 'Open Sans', verdana, arial, sans-serif; font-size: 9px; fill: rgb(68, 68, 68); fill-opacity: 1; visibility: visible; white-space: pre;">2</text></g><g class="xtick" data-bb="8910"><text text-anchor="middle" x="0" y="331" transform="translate(505.01,0)" style="font-family: 'Open Sans', verdana, arial, sans-serif; font-size: 9px; fill: rgb(68, 68, 68); fill-opacity: 1; visibility: visible; white-space: pre;">5</text></g></g><g class="yaxislayer" transform="translate(80,100)"><g class="ytick" data-bb="8912"><text text-anchor="end" x="-2" y="4.5" transform="translate(0,300.89)" style="font-family: 'Open Sans', verdana, arial, sans-serif; font-size: 9px; fill: rgb(68, 68, 68); fill-opacity: 1; visibility: visible; white-space: pre;">3</text></g><g class="ytick" data-bb="8913"><text text-anchor="end" x="-2" y="4.5" transform="translate(0,265.01)" style="font-family: 'Open Sans', verdana, arial, sans-serif; font-size: 9px; fill: rgb(68, 68, 68); fill-opacity: 1; visibility: visible; white-space: pre;">4</text></g><g class="ytick" data-bb="8914"><text text-anchor="end" x="-2" y="4.5" transform="translate(0,237.19)" style="font-family: 'Open Sans', verdana, arial, sans-serif; font-size: 9px; fill: rgb(68, 68, 68); fill-opacity: 1; visibility: visible; white-space: pre;">5</text></g><g class="ytick" data-bb="8915"><text text-anchor="end" x="-2" y="4.5" transform="translate(0,214.45)" style="font-family: 'Open Sans', verdana, arial, sans-serif; font-size: 9px; fill: rgb(68, 68, 68); fill-opacity: 1; visibility: visible; white-space: pre;">6</text></g><g class="ytick" data-bb="8916"><text text-anchor="end" x="-2" y="4.5" transform="translate(0,195.23)" style="font-family: 'Open Sans', verdana, arial, sans-serif; font-size: 9px; fill: rgb(68, 68, 68); fill-opacity: 1; visibility: visible; white-space: pre;">7</text></g><g class="ytick" data-bb="8917"><text text-anchor="end" x="-2" y="4.5" transform="translate(0,178.58)" style="font-family: 'Open Sans', verdana, arial, sans-serif; font-size: 9px; fill: rgb(68, 68, 68); fill-opacity: 1; visibility: visible; white-space: pre;">8</text></g><g class="ytick" data-bb="8918"><text text-anchor="end" x="-2" y="4.5" transform="translate(0,163.89)" style="font-family: 'Open Sans', verdana, arial, sans-serif; font-size: 9px; fill: rgb(68, 68, 68); fill-opacity: 1; visibility: visible; white-space: pre;">9</text></g><g class="ytick" data-bb="8919"><text text-anchor="end" x="-5" y="4" transform="translate(0,150.75)" style="font-family: 'Open Sans', verdana, arial, sans-serif; font-size: 12px; fill: rgb(68, 68, 68); fill-opacity: 1; visibility: visible; white-space: pre;">1000</text></g><g class="ytick" data-bb="8920"><text text-anchor="end" x="-2" y="4.5" transform="translate(0,64.32)" style="font-family: 'Open Sans', verdana, arial, sans-serif; font-size: 9px; fill: rgb(68, 68, 68); fill-opacity: 1; visibility: visible; white-space: pre;">2</text></g><g class="ytick" data-bb="8921"><text text-anchor="end" x="-2" y="4.5" transform="translate(0,13.76)" style="font-family: 'Open Sans', verdana, arial, sans-serif; font-size: 9px; fill: rgb(68, 68, 68); fill-opacity: 1; visibility: visible; white-space: pre;">3</text></g></g><g class="overaxes"/></g></g><g class="ternarylayer"/><g class="layer-above"><g class="imagelayer"/><g class="shapelayer"/></g><g class="pielayer"/><g class="glimages"/><g class="geoimages"/><text class="js-plot-link-container" y="491" text-anchor="end" x="693" style="font-family: 'Open Sans', Arial, sans-serif; font-size: 12px; fill: rgb(68, 68, 68); pointer-events: all; visibility: visible;"><tspan class="js-link-to-tool"/><tspan class="js-link-spacer"/><tspan class="js-sourcelinks"/></text><defs id="topdefs-57c817"><clipPath id="legend57c817"><rect width="93" height="48" x="0" y="0"/></clipPath></defs><g class="infolayer"><g class="g-gtitle"><text class="gtitle" x="350" y="50" text-anchor="middle" style="font-family: 'Open Sans', verdana, arial, sans-serif; font-size: 17px; fill: rgb(68, 68, 68); opacity: 1; font-weight: normal; white-space: pre; visibility: visible;">Cross-Validation Scores</text></g><g class="g-xtitle" data-bb="8898"><text class="xtitle" x="332.5" y="472" text-anchor="middle" style="font-family: 'Open Sans', verdana, arial, sans-serif; font-size: 14px; fill: rgb(68, 68, 68); opacity: 1; font-weight: normal; white-space: pre; visibility: visible;">Number of Trees</text></g><g class="g-ytitle" data-bb="8911" transform="translate(-0.453125,0)"><text class="ytitle" transform="rotate(-90,42,260) translate(0, 0)" x="42" y="260" text-anchor="middle" style="font-family: 'Open Sans', verdana, arial, sans-serif; font-size: 14px; fill: rgb(68, 68, 68); opacity: 1; font-weight: normal; white-space: pre; visibility: visible;">Mean Absolute Error</text></g><g class="legend" pointer-events="all" transform="translate(595.1, 100)"><rect class="bg" shape-rendering="crispEdges" style="stroke: rgb(68, 68, 68); stroke-opacity: 1; fill: rgb(255, 255, 255); fill-opacity: 1; stroke-width: 0px;" width="93" height="48" x="0" y="0"/><g class="scrollbox" transform="translate(0, 0)" clip-path="url(#legend57c817)"><g class="groups"><g class="traces" transform="translate(0, 14.5)" style="opacity: 1;"><g class="legendfill"/><g class="legendlines"><path class="js-line" d="M5,0h30" style="fill: none; stroke: rgb(22, 96, 167); stroke-opacity: 1; stroke-width: 4px;"/></g><g class="legendsymbols" style="opacity: 0.7;"><g class="legendpoints"/></g><text class="legendtext user-select-none" x="40" y="4.680000000000001" style="text-anchor: start; font-family: 'Open Sans', verdana, arial, sans-serif; font-size: 12px; fill: rgb(68, 68, 68); fill-opacity: 1; white-space: pre; visibility: visible;" data-bb="8922">CV-Train</text><rect class="legendtoggle" pointer-events="all" style="cursor: pointer; fill: rgb(0, 0, 0); fill-opacity: 0;" x="0" y="-9.5" width="133" height="19"/></g><g class="traces" transform="translate(0, 33.5)" style="opacity: 1;"><g class="legendfill"/><g class="legendlines"><path class="js-line" d="M5,0h30" style="fill: none; stroke: rgb(205, 12, 24); stroke-opacity: 1; stroke-width: 4px;"/></g><g class="legendsymbols" style="opacity: 0.7;"><g class="legendpoints"/></g><text class="legendtext user-select-none" x="40" y="4.680000000000001" style="text-anchor: start; font-family: 'Open Sans', verdana, arial, sans-serif; font-size: 12px; fill: rgb(68, 68, 68); fill-opacity: 1; white-space: pre; visibility: visible;" data-bb="8923">CV-Test</text><rect class="legendtoggle" pointer-events="all" x="0" y="-9.5" width="133" height="19" style="cursor: pointer; fill: rgb(0, 0, 0); fill-opacity: 0;"/></g></g></g><rect class="scrollbar" rx="20" ry="2" width="0" height="0" style="fill: rgb(128, 139, 164); fill-opacity: 1;"/></g></g></svg>