<svg class="main-svg" xmlns="http://www.w3.org/2000/svg" xmlns:xlink="http://www.w3.org/1999/xlink" width="950" height="600"><rect x="0" y="0" width="950" height="600" style="fill: rgb(255, 255, 255); fill-opacity: 1;"/><defs id="defs-5d1580"><g class="clips"><clipPath class="axesclip" id="clip5d1580x"><rect x="80" y="0" width="689" height="600"/></clipPath><clipPath class="axesclip" id="clip5d1580y"><rect x="0" y="50" width="950" height="450"/></clipPath><clipPath class="axesclip" id="clip5d1580xy"><rect x="80" y="50" width="689" height="450"/></clipPath><clipPath class="plotclip" id="clip5d1580xyplot"><rect width="689" height="450"/></clipPath></g></defs><g class="layer-below"><g class="imagelayer"/><g class="shapelayer"/></g><g class="cartesianlayer"><g class="subplot xy"><rect class="bg" x="76" y="46" width="697" height="458" style="stroke-width: 0px; fill: rgb(255, 255, 255); fill-opacity: 1;"/><g class="layer-subplot"><g class="shapelayer"/><g class="imagelayer"/></g><g class="gridlayer" transform="translate(80,50)"><path class="xgrid crisp" d="M0,0v450" transform="translate(38.28,0)" style="stroke: rgb(238, 238, 238); stroke-opacity: 1; stroke-width: 1px;"/><path class="xgrid crisp" d="M0,0v450" transform="translate(114.83,0)" style="stroke: rgb(238, 238, 238); stroke-opacity: 1; stroke-width: 1px;"/><path class="xgrid crisp" d="M0,0v450" transform="translate(191.39,0)" style="stroke: rgb(238, 238, 238); stroke-opacity: 1; stroke-width: 1px;"/><path class="xgrid crisp" d="M0,0v450" transform="translate(267.94,0)" style="stroke: rgb(238, 238, 238); stroke-opacity: 1; stroke-width: 1px;"/><path class="xgrid crisp" d="M0,0v450" transform="translate(344.5,0)" style="stroke: rgb(238, 238, 238); stroke-opacity: 1; stroke-width: 1px;"/><path class="xgrid crisp" d="M0,0v450" transform="translate(421.06,0)" style="stroke: rgb(238, 238, 238); stroke-opacity: 1; stroke-width: 1px;"/><path class="xgrid crisp" d="M0,0v450" transform="translate(497.61,0)" style="stroke: rgb(238, 238, 238); stroke-opacity: 1; stroke-width: 1px;"/><path class="xgrid crisp" d="M0,0v450" transform="translate(574.17,0)" style="stroke: rgb(238, 238, 238); stroke-opacity: 1; stroke-width: 1px;"/><path class="xgrid crisp" d="M0,0v450" transform="translate(650.72,0)" style="stroke: rgb(238, 238, 238); stroke-opacity: 1; stroke-width: 1px;"/><path class="ygrid crisp" d="M0,0h689" transform="translate(0,342.86)" style="stroke: rgb(238, 238, 238); stroke-opacity: 1; stroke-width: 1px;"/><path class="ygrid crisp" d="M0,0h689" transform="translate(0,235.71)" style="stroke: rgb(238, 238, 238); stroke-opacity: 1; stroke-width: 1px;"/><path class="ygrid crisp" d="M0,0h689" transform="translate(0,128.57)" style="stroke: rgb(238, 238, 238); stroke-opacity: 1; stroke-width: 1px;"/><path class="ygrid crisp" d="M0,0h689" transform="translate(0,21.43)" style="stroke: rgb(238, 238, 238); stroke-opacity: 1; stroke-width: 1px;"/></g><g class="overgrid"/><g class="zerolinelayer" transform="translate(80,50)"/><g class="overzero"/><g class="plot" transform="translate(80, 50)" clip-path="url(#clip5d1580xyplot)"><g class="imagelayer"/><g class="maplayer"/><g class="barlayer"/><g class="boxlayer"/><g class="scatterlayer"><g class="trace scatter trace9d84de" style="stroke-miterlimit: 2; opacity: 1;"><path class="js-line" d="M38.28,191.65L114.83,208.71L191.39,217.29L267.94,217.29L344.5,218.74L421.06,236.9L497.61,307.3" style="vector-effect: non-scaling-stroke; fill: none; stroke: rgb(166, 206, 227); stroke-opacity: 1; stroke-width: 2px; opacity: 1;"/><g class="points"><path class="point" d="M3,0A3,3 0 1,1 0,-3A3,3 0 0,1 3,0Z" transform="translate(38.28,191.65)" style="opacity: 1; stroke-width: 0px; fill: rgb(166, 206, 227); fill-opacity: 1;"/><path class="point" d="M3,0A3,3 0 1,1 0,-3A3,3 0 0,1 3,0Z" transform="translate(114.83,208.71)" style="opacity: 1; stroke-width: 0px; fill: rgb(166, 206, 227); fill-opacity: 1;"/><path class="point" d="M3,0A3,3 0 1,1 0,-3A3,3 0 0,1 3,0Z" transform="translate(191.39,217.29)" style="opacity: 1; stroke-width: 0px; fill: rgb(166, 206, 227); fill-opacity: 1;"/><path class="point" d="M3,0A3,3 0 1,1 0,-3A3,3 0 0,1 3,0Z" transform="translate(267.94,217.29)" style="opacity: 1; stroke-width: 0px; fill: rgb(166, 206, 227); fill-opacity: 1;"/><path class="point" d="M3,0A3,3 0 1,1 0,-3A3,3 0 0,1 3,0Z" transform="translate(344.5,218.74)" style="opacity: 1; stroke-width: 0px; fill: rgb(166, 206, 227); fill-opacity: 1;"/><path class="point" d="M3,0A3,3 0 1,1 0,-3A3,3 0 0,1 3,0Z" transform="translate(421.06,236.9)" style="opacity: 1; stroke-width: 0px; fill: rgb(166, 206, 227); fill-opacity: 1;"/><path class="point" d="M3,0A3,3 0 1,1 0,-3A3,3 0 0,1 3,0Z" transform="translate(497.61,307.3)" style="opacity: 1; stroke-width: 0px; fill: rgb(166, 206, 227); fill-opacity: 1;"/></g></g><g class="trace scatter trace58a9dd" style="stroke-miterlimit: 2; opacity: 1;"><path class="js-line" d="M38.28,10.08L114.83,199.8L191.39,209.77L267.94,220.58L344.5,227.31L421.06,251.1L497.61,307.3" style="vector-effect: non-scaling-stroke; fill: none; stroke: rgb(31, 120, 180); stroke-opacity: 1; stroke-width: 2px; opacity: 1;"/><g class="points"><path class="point" d="M3,0A3,3 0 1,1 0,-3A3,3 0 0,1 3,0Z" transform="translate(38.28,10.08)" style="opacity: 1; stroke-width: 0px; fill: rgb(31, 120, 180); fill-opacity: 1;"/><path class="point" d="M3,0A3,3 0 1,1 0,-3A3,3 0 0,1 3,0Z" transform="translate(114.83,199.8)" style="opacity: 1; stroke-width: 0px; fill: rgb(31, 120, 180); fill-opacity: 1;"/><path class="point" d="M3,0A3,3 0 1,1 0,-3A3,3 0 0,1 3,0Z" transform="translate(191.39,209.77)" style="opacity: 1; stroke-width: 0px; fill: rgb(31, 120, 180); fill-opacity: 1;"/><path class="point" d="M3,0A3,3 0 1,1 0,-3A3,3 0 0,1 3,0Z" transform="translate(267.94,220.58)" style="opacity: 1; stroke-width: 0px; fill: rgb(31, 120, 180); fill-opacity: 1;"/><path class="point" d="M3,0A3,3 0 1,1 0,-3A3,3 0 0,1 3,0Z" transform="translate(344.5,227.31)" style="opacity: 1; stroke-width: 0px; fill: rgb(31, 120, 180); fill-opacity: 1;"/><path class="point" d="M3,0A3,3 0 1,1 0,-3A3,3 0 0,1 3,0Z" transform="translate(421.06,251.1)" style="opacity: 1; stroke-width: 0px; fill: rgb(31, 120, 180); fill-opacity: 1;"/><path class="point" d="M3,0A3,3 0 1,1 0,-3A3,3 0 0,1 3,0Z" transform="translate(497.61,307.3)" style="opacity: 1; stroke-width: 0px; fill: rgb(31, 120, 180); fill-opacity: 1;"/></g></g><g class="trace scatter trace273f7a" style="stroke-miterlimit: 2; opacity: 1;"><path class="js-line" d="M38.28,200.21L114.83,214.52L191.39,225.18L267.94,225.18L344.5,235.04L421.06,256.89L497.61,300.3" style="vector-effect: non-scaling-stroke; fill: none; stroke: rgb(178, 223, 138); stroke-opacity: 1; stroke-width: 2px; opacity: 1;"/><g class="points"><path class="point" d="M3,0A3,3 0 1,1 0,-3A3,3 0 0,1 3,0Z" transform="translate(38.28,200.21)" style="opacity: 1; stroke-width: 0px; fill: rgb(178, 223, 138); fill-opacity: 1;"/><path class="point" d="M3,0A3,3 0 1,1 0,-3A3,3 0 0,1 3,0Z" transform="translate(114.83,214.52)" style="opacity: 1; stroke-width: 0px; fill: rgb(178, 223, 138); fill-opacity: 1;"/><path class="point" d="M3,0A3,3 0 1,1 0,-3A3,3 0 0,1 3,0Z" transform="translate(191.39,225.18)" style="opacity: 1; stroke-width: 0px; fill: rgb(178, 223, 138); fill-opacity: 1;"/><path class="point" d="M3,0A3,3 0 1,1 0,-3A3,3 0 0,1 3,0Z" transform="translate(267.94,225.18)" style="opacity: 1; stroke-width: 0px; fill: rgb(178, 223, 138); fill-opacity: 1;"/><path class="point" d="M3,0A3,3 0 1,1 0,-3A3,3 0 0,1 3,0Z" transform="translate(344.5,235.04)" style="opacity: 1; stroke-width: 0px; fill: rgb(178, 223, 138); fill-opacity: 1;"/><path class="point" d="M3,0A3,3 0 1,1 0,-3A3,3 0 0,1 3,0Z" transform="translate(421.06,256.89)" style="opacity: 1; stroke-width: 0px; fill: rgb(178, 223, 138); fill-opacity: 1;"/><path class="point" d="M3,0A3,3 0 1,1 0,-3A3,3 0 0,1 3,0Z" transform="translate(497.61,300.3)" style="opacity: 1; stroke-width: 0px; fill: rgb(178, 223, 138); fill-opacity: 1;"/></g></g><g class="trace scatter tracec0acbb" style="stroke-miterlimit: 2; opacity: 1;"><path class="js-line" d="M38.28,31.36L114.83,214.42L191.39,220.54L267.94,229.14L344.5,229.14L421.06,241.81L497.61,300.3" style="vector-effect: non-scaling-stroke; fill: none; stroke: rgb(51, 160, 44); stroke-opacity: 1; stroke-width: 2px; opacity: 1;"/><g class="points"><path class="point" d="M3,0A3,3 0 1,1 0,-3A3,3 0 0,1 3,0Z" transform="translate(38.28,31.36)" style="opacity: 1; stroke-width: 0px; fill: rgb(51, 160, 44); fill-opacity: 1;"/><path class="point" d="M3,0A3,3 0 1,1 0,-3A3,3 0 0,1 3,0Z" transform="translate(114.83,214.42)" style="opacity: 1; stroke-width: 0px; fill: rgb(51, 160, 44); fill-opacity: 1;"/><path class="point" d="M3,0A3,3 0 1,1 0,-3A3,3 0 0,1 3,0Z" transform="translate(191.39,220.54)" style="opacity: 1; stroke-width: 0px; fill: rgb(51, 160, 44); fill-opacity: 1;"/><path class="point" d="M3,0A3,3 0 1,1 0,-3A3,3 0 0,1 3,0Z" transform="translate(267.94,229.14)" style="opacity: 1; stroke-width: 0px; fill: rgb(51, 160, 44); fill-opacity: 1;"/><path class="point" d="M3,0A3,3 0 1,1 0,-3A3,3 0 0,1 3,0Z" transform="translate(344.5,229.14)" style="opacity: 1; stroke-width: 0px; fill: rgb(51, 160, 44); fill-opacity: 1;"/><path class="point" d="M3,0A3,3 0 1,1 0,-3A3,3 0 0,1 3,0Z" transform="translate(421.06,241.81)" style="opacity: 1; stroke-width: 0px; fill: rgb(51, 160, 44); fill-opacity: 1;"/><path class="point" d="M3,0A3,3 0 1,1 0,-3A3,3 0 0,1 3,0Z" transform="translate(497.61,300.3)" style="opacity: 1; stroke-width: 0px; fill: rgb(51, 160, 44); fill-opacity: 1;"/></g></g><g class="trace scatter traced80f15" style="stroke-miterlimit: 2; opacity: 1;"><path class="js-line" d="M38.28,190.07L114.83,219.82L191.39,223.99L267.94,227.83L344.5,237.16L421.06,259.33L497.61,313.17" style="vector-effect: non-scaling-stroke; fill: none; stroke: rgb(251, 154, 153); stroke-opacity: 1; stroke-width: 2px; opacity: 1;"/><g class="points"><path class="point" d="M3,0A3,3 0 1,1 0,-3A3,3 0 0,1 3,0Z" transform="translate(38.28,190.07)" style="opacity: 1; stroke-width: 0px; fill: rgb(251, 154, 153); fill-opacity: 1;"/><path class="point" d="M3,0A3,3 0 1,1 0,-3A3,3 0 0,1 3,0Z" transform="translate(114.83,219.82)" style="opacity: 1; stroke-width: 0px; fill: rgb(251, 154, 153); fill-opacity: 1;"/><path class="point" d="M3,0A3,3 0 1,1 0,-3A3,3 0 0,1 3,0Z" transform="translate(191.39,223.99)" style="opacity: 1; stroke-width: 0px; fill: rgb(251, 154, 153); fill-opacity: 1;"/><path class="point" d="M3,0A3,3 0 1,1 0,-3A3,3 0 0,1 3,0Z" transform="translate(267.94,227.83)" style="opacity: 1; stroke-width: 0px; fill: rgb(251, 154, 153); fill-opacity: 1;"/><path class="point" d="M3,0A3,3 0 1,1 0,-3A3,3 0 0,1 3,0Z" transform="translate(344.5,237.16)" style="opacity: 1; stroke-width: 0px; fill: rgb(251, 154, 153); fill-opacity: 1;"/><path class="point" d="M3,0A3,3 0 1,1 0,-3A3,3 0 0,1 3,0Z" transform="translate(421.06,259.33)" style="opacity: 1; stroke-width: 0px; fill: rgb(251, 154, 153); fill-opacity: 1;"/><path class="point" d="M3,0A3,3 0 1,1 0,-3A3,3 0 0,1 3,0Z" transform="translate(497.61,313.17)" style="opacity: 1; stroke-width: 0px; fill: rgb(251, 154, 153); fill-opacity: 1;"/></g></g><g class="trace scatter trace2320c7" style="stroke-miterlimit: 2; opacity: 1;"><path class="js-line" d="M38.28,46.41L114.83,231.94L191.39,234.58L267.94,236.64L344.5,236.64L421.06,250.4L497.61,313.17" style="vector-effect: non-scaling-stroke; fill: none; stroke: rgb(227, 26, 28); stroke-opacity: 1; stroke-width: 2px; opacity: 1;"/><g class="points"><path class="point" d="M3,0A3,3 0 1,1 0,-3A3,3 0 0,1 3,0Z" transform="translate(38.28,46.41)" style="opacity: 1; stroke-width: 0px; fill: rgb(227, 26, 28); fill-opacity: 1;"/><path class="point" d="M3,0A3,3 0 1,1 0,-3A3,3 0 0,1 3,0Z" transform="translate(114.83,231.94)" style="opacity: 1; stroke-width: 0px; fill: rgb(227, 26, 28); fill-opacity: 1;"/><path class="point" d="M3,0A3,3 0 1,1 0,-3A3,3 0 0,1 3,0Z" transform="translate(191.39,234.58)" style="opacity: 1; stroke-width: 0px; fill: rgb(227, 26, 28); fill-opacity: 1;"/><path class="point" d="M3,0A3,3 0 1,1 0,-3A3,3 0 0,1 3,0Z" transform="translate(267.94,236.64)" style="opacity: 1; stroke-width: 0px; fill: rgb(227, 26, 28); fill-opacity: 1;"/><path class="point" d="M3,0A3,3 0 1,1 0,-3A3,3 0 0,1 3,0Z" transform="translate(344.5,236.64)" style="opacity: 1; stroke-width: 0px; fill: rgb(227, 26, 28); fill-opacity: 1;"/><path class="point" d="M3,0A3,3 0 1,1 0,-3A3,3 0 0,1 3,0Z" transform="translate(421.06,250.4)" style="opacity: 1; stroke-width: 0px; fill: rgb(227, 26, 28); fill-opacity: 1;"/><path class="point" d="M3,0A3,3 0 1,1 0,-3A3,3 0 0,1 3,0Z" transform="translate(497.61,313.17)" style="opacity: 1; stroke-width: 0px; fill: rgb(227, 26, 28); fill-opacity: 1;"/></g></g><g class="trace scatter tracefef993" style="stroke-miterlimit: 2; opacity: 1;"><path class="js-line" d="M38.28,197.26L114.83,214.84L191.39,226.53L267.94,233.97L344.5,235.82L421.06,258.83L497.61,322.11" style="vector-effect: non-scaling-stroke; fill: none; stroke: rgb(253, 191, 111); stroke-opacity: 1; stroke-width: 2px; opacity: 1;"/><g class="points"><path class="point" d="M3,0A3,3 0 1,1 0,-3A3,3 0 0,1 3,0Z" transform="translate(38.28,197.26)" style="opacity: 1; stroke-width: 0px; fill: rgb(253, 191, 111); fill-opacity: 1;"/><path class="point" d="M3,0A3,3 0 1,1 0,-3A3,3 0 0,1 3,0Z" transform="translate(114.83,214.84)" style="opacity: 1; stroke-width: 0px; fill: rgb(253, 191, 111); fill-opacity: 1;"/><path class="point" d="M3,0A3,3 0 1,1 0,-3A3,3 0 0,1 3,0Z" transform="translate(191.39,226.53)" style="opacity: 1; stroke-width: 0px; fill: rgb(253, 191, 111); fill-opacity: 1;"/><path class="point" d="M3,0A3,3 0 1,1 0,-3A3,3 0 0,1 3,0Z" transform="translate(267.94,233.97)" style="opacity: 1; stroke-width: 0px; fill: rgb(253, 191, 111); fill-opacity: 1;"/><path class="point" d="M3,0A3,3 0 1,1 0,-3A3,3 0 0,1 3,0Z" transform="translate(344.5,235.82)" style="opacity: 1; stroke-width: 0px; fill: rgb(253, 191, 111); fill-opacity: 1;"/><path class="point" d="M3,0A3,3 0 1,1 0,-3A3,3 0 0,1 3,0Z" transform="translate(421.06,258.83)" style="opacity: 1; stroke-width: 0px; fill: rgb(253, 191, 111); fill-opacity: 1;"/><path class="point" d="M3,0A3,3 0 1,1 0,-3A3,3 0 0,1 3,0Z" transform="translate(497.61,322.11)" style="opacity: 1; stroke-width: 0px; fill: rgb(253, 191, 111); fill-opacity: 1;"/></g></g><g class="trace scatter trace3e5ddd" style="stroke-miterlimit: 2; opacity: 1;"><path class="js-line" d="M38.28,54.07L114.83,234.05L191.39,238.48L344.5,242.01L421.06,265.57L497.61,322.11" style="vector-effect: non-scaling-stroke; fill: none; stroke: rgb(255, 127, 0); stroke-opacity: 1; stroke-width: 2px; opacity: 1;"/><g class="points"><path class="point" d="M3,0A3,3 0 1,1 0,-3A3,3 0 0,1 3,0Z" transform="translate(38.28,54.07)" style="opacity: 1; stroke-width: 0px; fill: rgb(255, 127, 0); fill-opacity: 1;"/><path class="point" d="M3,0A3,3 0 1,1 0,-3A3,3 0 0,1 3,0Z" transform="translate(114.83,234.05)" style="opacity: 1; stroke-width: 0px; fill: rgb(255, 127, 0); fill-opacity: 1;"/><path class="point" d="M3,0A3,3 0 1,1 0,-3A3,3 0 0,1 3,0Z" transform="translate(191.39,238.48)" style="opacity: 1; stroke-width: 0px; fill: rgb(255, 127, 0); fill-opacity: 1;"/><path class="point" d="M3,0A3,3 0 1,1 0,-3A3,3 0 0,1 3,0Z" transform="translate(267.94,240.55)" style="opacity: 1; stroke-width: 0px; fill: rgb(255, 127, 0); fill-opacity: 1;"/><path class="point" d="M3,0A3,3 0 1,1 0,-3A3,3 0 0,1 3,0Z" transform="translate(344.5,242.01)" style="opacity: 1; stroke-width: 0px; fill: rgb(255, 127, 0); fill-opacity: 1;"/><path class="point" d="M3,0A3,3 0 1,1 0,-3A3,3 0 0,1 3,0Z" transform="translate(421.06,265.57)" style="opacity: 1; stroke-width: 0px; fill: rgb(255, 127, 0); fill-opacity: 1;"/><path class="point" d="M3,0A3,3 0 1,1 0,-3A3,3 0 0,1 3,0Z" transform="translate(497.61,322.11)" style="opacity: 1; stroke-width: 0px; fill: rgb(255, 127, 0); fill-opacity: 1;"/></g></g><g class="trace scatter tracedd7105" style="stroke-miterlimit: 2; opacity: 1;"><path class="js-line" d="M38.28,196.38L114.83,217.05L191.39,224.71L267.94,228.75L344.5,228.82L421.06,268.74L497.61,320.14" style="vector-effect: non-scaling-stroke; fill: none; stroke: rgb(202, 178, 214); stroke-opacity: 1; stroke-width: 2px; opacity: 1;"/><g class="points"><path class="point" d="M3,0A3,3 0 1,1 0,-3A3,3 0 0,1 3,0Z" transform="translate(38.28,196.38)" style="opacity: 1; stroke-width: 0px; fill: rgb(202, 178, 214); fill-opacity: 1;"/><path class="point" d="M3,0A3,3 0 1,1 0,-3A3,3 0 0,1 3,0Z" transform="translate(114.83,217.05)" style="opacity: 1; stroke-width: 0px; fill: rgb(202, 178, 214); fill-opacity: 1;"/><path class="point" d="M3,0A3,3 0 1,1 0,-3A3,3 0 0,1 3,0Z" transform="translate(191.39,224.71)" style="opacity: 1; stroke-width: 0px; fill: rgb(202, 178, 214); fill-opacity: 1;"/><path class="point" d="M3,0A3,3 0 1,1 0,-3A3,3 0 0,1 3,0Z" transform="translate(267.94,228.75)" style="opacity: 1; stroke-width: 0px; fill: rgb(202, 178, 214); fill-opacity: 1;"/><path class="point" d="M3,0A3,3 0 1,1 0,-3A3,3 0 0,1 3,0Z" transform="translate(344.5,228.82)" style="opacity: 1; stroke-width: 0px; fill: rgb(202, 178, 214); fill-opacity: 1;"/><path class="point" d="M3,0A3,3 0 1,1 0,-3A3,3 0 0,1 3,0Z" transform="translate(421.06,268.74)" style="opacity: 1; stroke-width: 0px; fill: rgb(202, 178, 214); fill-opacity: 1;"/><path class="point" d="M3,0A3,3 0 1,1 0,-3A3,3 0 0,1 3,0Z" transform="translate(497.61,320.14)" style="opacity: 1; stroke-width: 0px; fill: rgb(202, 178, 214); fill-opacity: 1;"/></g></g><g class="trace scatter tracec25169" style="stroke-miterlimit: 2; opacity: 1;"><path class="js-line" d="M38.28,74.74L114.83,235.71L191.39,245.87L344.5,245.87L421.06,266.7L497.61,320.14" style="vector-effect: non-scaling-stroke; fill: none; stroke: rgb(106, 61, 154); stroke-opacity: 1; stroke-width: 2px; opacity: 1;"/><g class="points"><path class="point" d="M3,0A3,3 0 1,1 0,-3A3,3 0 0,1 3,0Z" transform="translate(38.28,74.74)" style="opacity: 1; stroke-width: 0px; fill: rgb(106, 61, 154); fill-opacity: 1;"/><path class="point" d="M3,0A3,3 0 1,1 0,-3A3,3 0 0,1 3,0Z" transform="translate(114.83,235.71)" style="opacity: 1; stroke-width: 0px; fill: rgb(106, 61, 154); fill-opacity: 1;"/><path class="point" d="M3,0A3,3 0 1,1 0,-3A3,3 0 0,1 3,0Z" transform="translate(191.39,245.87)" style="opacity: 1; stroke-width: 0px; fill: rgb(106, 61, 154); fill-opacity: 1;"/><path class="point" d="M3,0A3,3 0 1,1 0,-3A3,3 0 0,1 3,0Z" transform="translate(267.94,245.87)" style="opacity: 1; stroke-width: 0px; fill: rgb(106, 61, 154); fill-opacity: 1;"/><path class="point" d="M3,0A3,3 0 1,1 0,-3A3,3 0 0,1 3,0Z" transform="translate(344.5,245.87)" style="opacity: 1; stroke-width: 0px; fill: rgb(106, 61, 154); fill-opacity: 1;"/><path class="point" d="M3,0A3,3 0 1,1 0,-3A3,3 0 0,1 3,0Z" transform="translate(421.06,266.7)" style="opacity: 1; stroke-width: 0px; fill: rgb(106, 61, 154); fill-opacity: 1;"/><path class="point" d="M3,0A3,3 0 1,1 0,-3A3,3 0 0,1 3,0Z" transform="translate(497.61,320.14)" style="opacity: 1; stroke-width: 0px; fill: rgb(106, 61, 154); fill-opacity: 1;"/></g></g><g class="trace scatter traceebe5d5" style="stroke-miterlimit: 2; opacity: 1;"><path class="js-line" d="M497.61,122.27L574.17,165.34L650.72,394.29" style="vector-effect: non-scaling-stroke; fill: none; stroke: rgb(37, 37, 37); stroke-opacity: 1; stroke-width: 2px; opacity: 1;"/><g class="points"><path class="point" d="M3,0A3,3 0 1,1 0,-3A3,3 0 0,1 3,0Z" transform="translate(497.61,122.27)" style="opacity: 1; stroke-width: 0px; fill: rgb(37, 37, 37); fill-opacity: 1;"/><path class="point" d="M3,0A3,3 0 1,1 0,-3A3,3 0 0,1 3,0Z" transform="translate(574.17,165.34)" style="opacity: 1; stroke-width: 0px; fill: rgb(37, 37, 37); fill-opacity: 1;"/><path class="point" d="M3,0A3,3 0 1,1 0,-3A3,3 0 0,1 3,0Z" transform="translate(650.72,394.29)" style="opacity: 1; stroke-width: 0px; fill: rgb(37, 37, 37); fill-opacity: 1;"/></g></g><g class="trace scatter trace9eb060" style="stroke-miterlimit: 2; opacity: 1;"><path class="js-line" d="M497.61,108.17L574.17,165.34L650.72,394.29" style="vector-effect: non-scaling-stroke; fill: none; stroke: rgb(99, 99, 99); stroke-opacity: 1; stroke-width: 2px; opacity: 1;"/><g class="points"><path class="point" d="M3,0A3,3 0 1,1 0,-3A3,3 0 0,1 3,0Z" transform="translate(497.61,108.17)" style="opacity: 1; stroke-width: 0px; fill: rgb(99, 99, 99); fill-opacity: 1;"/><path class="point" d="M3,0A3,3 0 1,1 0,-3A3,3 0 0,1 3,0Z" transform="translate(574.17,165.34)" style="opacity: 1; stroke-width: 0px; fill: rgb(99, 99, 99); fill-opacity: 1;"/><path class="point" d="M3,0A3,3 0 1,1 0,-3A3,3 0 0,1 3,0Z" transform="translate(650.72,394.29)" style="opacity: 1; stroke-width: 0px; fill: rgb(99, 99, 99); fill-opacity: 1;"/></g></g><g class="trace scatter tracec2b369" style="stroke-miterlimit: 2; opacity: 1;"><path class="js-line" d="M497.61,109.29L574.17,165.34L650.72,394.29" style="vector-effect: non-scaling-stroke; fill: none; stroke: rgb(150, 150, 150); stroke-opacity: 1; stroke-width: 2px; opacity: 1;"/><g class="points"><path class="point" d="M3,0A3,3 0 1,1 0,-3A3,3 0 0,1 3,0Z" transform="translate(497.61,109.29)" style="opacity: 1; stroke-width: 0px; fill: rgb(150, 150, 150); fill-opacity: 1;"/><path class="point" d="M3,0A3,3 0 1,1 0,-3A3,3 0 0,1 3,0Z" transform="translate(574.17,165.34)" style="opacity: 1; stroke-width: 0px; fill: rgb(150, 150, 150); fill-opacity: 1;"/><path class="point" d="M3,0A3,3 0 1,1 0,-3A3,3 0 0,1 3,0Z" transform="translate(650.72,394.29)" style="opacity: 1; stroke-width: 0px; fill: rgb(150, 150, 150); fill-opacity: 1;"/></g></g><g class="trace scatter trace1abb47" style="stroke-miterlimit: 2; opacity: 1;"><path class="js-line" d="M497.61,307.3L574.17,324.26L650.72,394.29" style="vector-effect: non-scaling-stroke; fill: none; stroke: rgb(31, 120, 180); stroke-opacity: 1; stroke-width: 2px; opacity: 1;"/><g class="points"><path class="point" d="M3,0A3,3 0 1,1 0,-3A3,3 0 0,1 3,0Z" transform="translate(497.61,307.3)" style="opacity: 1; stroke-width: 0px; fill: rgb(31, 120, 180); fill-opacity: 1;"/><path class="point" d="M3,0A3,3 0 1,1 0,-3A3,3 0 0,1 3,0Z" transform="translate(574.17,324.26)" style="opacity: 1; stroke-width: 0px; fill: rgb(31, 120, 180); fill-opacity: 1;"/><path class="point" d="M3,0A3,3 0 1,1 0,-3A3,3 0 0,1 3,0Z" transform="translate(650.72,394.29)" style="opacity: 1; stroke-width: 0px; fill: rgb(31, 120, 180); fill-opacity: 1;"/></g></g><g class="trace scatter trace8ba1f1" style="stroke-miterlimit: 2; opacity: 1;"><path class="js-line" d="M497.61,300.3L574.17,324.26L650.72,394.29" style="vector-effect: non-scaling-stroke; fill: none; stroke: rgb(51, 160, 44); stroke-opacity: 1; stroke-width: 2px; opacity: 1;"/><g class="points"><path class="point" d="M3,0A3,3 0 1,1 0,-3A3,3 0 0,1 3,0Z" transform="translate(497.61,300.3)" style="opacity: 1; stroke-width: 0px; fill: rgb(51, 160, 44); fill-opacity: 1;"/><path class="point" d="M3,0A3,3 0 1,1 0,-3A3,3 0 0,1 3,0Z" transform="translate(574.17,324.26)" style="opacity: 1; stroke-width: 0px; fill: rgb(51, 160, 44); fill-opacity: 1;"/><path class="point" d="M3,0A3,3 0 1,1 0,-3A3,3 0 0,1 3,0Z" transform="translate(650.72,394.29)" style="opacity: 1; stroke-width: 0px; fill: rgb(51, 160, 44); fill-opacity: 1;"/></g></g><g class="trace scatter traceb44f4a" style="stroke-miterlimit: 2; opacity: 1;"><path class="js-line" d="M497.61,313.17L574.17,324.26L650.72,394.29" style="vector-effect: non-scaling-stroke; fill: none; stroke: rgb(227, 26, 28); stroke-opacity: 1; stroke-width: 2px; opacity: 1;"/><g class="points"><path class="point" d="M3,0A3,3 0 1,1 0,-3A3,3 0 0,1 3,0Z" transform="translate(497.61,313.17)" style="opacity: 1; stroke-width: 0px; fill: rgb(227, 26, 28); fill-opacity: 1;"/><path class="point" d="M3,0A3,3 0 1,1 0,-3A3,3 0 0,1 3,0Z" transform="translate(574.17,324.26)" style="opacity: 1; stroke-width: 0px; fill: rgb(227, 26, 28); fill-opacity: 1;"/><path class="point" d="M3,0A3,3 0 1,1 0,-3A3,3 0 0,1 3,0Z" transform="translate(650.72,394.29)" style="opacity: 1; stroke-width: 0px; fill: rgb(227, 26, 28); fill-opacity: 1;"/></g></g><g class="trace scatter trace509a68" style="stroke-miterlimit: 2; opacity: 1;"><path class="js-line" d="M497.61,322.11L574.17,324.26L650.72,394.29" style="vector-effect: non-scaling-stroke; fill: none; stroke: rgb(255, 127, 0); stroke-opacity: 1; stroke-width: 2px; opacity: 1;"/><g class="points"><path class="point" d="M3,0A3,3 0 1,1 0,-3A3,3 0 0,1 3,0Z" transform="translate(497.61,322.11)" style="opacity: 1; stroke-width: 0px; fill: rgb(255, 127, 0); fill-opacity: 1;"/><path class="point" d="M3,0A3,3 0 1,1 0,-3A3,3 0 0,1 3,0Z" transform="translate(574.17,324.26)" style="opacity: 1; stroke-width: 0px; fill: rgb(255, 127, 0); fill-opacity: 1;"/><path class="point" d="M3,0A3,3 0 1,1 0,-3A3,3 0 0,1 3,0Z" transform="translate(650.72,394.29)" style="opacity: 1; stroke-width: 0px; fill: rgb(255, 127, 0); fill-opacity: 1;"/></g></g><g class="trace scatter tracee01217" style="stroke-miterlimit: 2; opacity: 1;"><path class="js-line" d="M497.61,320.14L574.17,324.26L650.72,394.29" style="vector-effect: non-scaling-stroke; fill: none; stroke: rgb(106, 61, 154); stroke-opacity: 1; stroke-width: 2px; opacity: 1;"/><g class="points"><path class="point" d="M3,0A3,3 0 1,1 0,-3A3,3 0 0,1 3,0Z" transform="translate(497.61,320.14)" style="opacity: 1; stroke-width: 0px; fill: rgb(106, 61, 154); fill-opacity: 1;"/><path class="point" d="M3,0A3,3 0 1,1 0,-3A3,3 0 0,1 3,0Z" transform="translate(574.17,324.26)" style="opacity: 1; stroke-width: 0px; fill: rgb(106, 61, 154); fill-opacity: 1;"/><path class="point" d="M3,0A3,3 0 1,1 0,-3A3,3 0 0,1 3,0Z" transform="translate(650.72,394.29)" style="opacity: 1; stroke-width: 0px; fill: rgb(106, 61, 154); fill-opacity: 1;"/></g></g></g></g><g class="overplot"/><path class="xlines crisp" transform="translate(80,50)" d="M-5,454.5h699" style="fill: none; stroke-width: 1px; stroke: rgb(0, 0, 0); stroke-opacity: 0;"/><path class="ylines crisp" transform="translate(80,50)" d="M-4.5,-5v459" stroke-width="1px" style="fill: none; stroke: rgb(0, 0, 0); stroke-opacity: 0;"/><g class="overlines"/><g class="xaxislayer" transform="translate(80,50)"><g class="xtick" data-bb="6336"><text text-anchor="middle" x="0" y="469" transform="translate(38.28,0)" style="font-family: 'Open Sans', verdana, arial, sans-serif; font-size: 13px; fill: rgb(68, 68, 68); fill-opacity: 1; visibility: visible; white-space: pre;" data-bb="6326">Stage0</text></g><g class="xtick" data-bb="6337"><text text-anchor="middle" x="0" y="469" transform="translate(114.83,0)" style="font-family: 'Open Sans', verdana, arial, sans-serif; font-size: 13px; fill: rgb(68, 68, 68); fill-opacity: 1; visibility: visible; white-space: pre;" data-bb="6327">Stage1</text></g><g class="xtick" data-bb="6338"><text text-anchor="middle" x="0" y="469" transform="translate(191.39,0)" style="font-family: 'Open Sans', verdana, arial, sans-serif; font-size: 13px; fill: rgb(68, 68, 68); fill-opacity: 1; visibility: visible; white-space: pre;" data-bb="6328">Stage2</text></g><g class="xtick" data-bb="6339"><text text-anchor="middle" x="0" y="469" transform="translate(267.94,0)" style="font-family: 'Open Sans', verdana, arial, sans-serif; font-size: 13px; fill: rgb(68, 68, 68); fill-opacity: 1; visibility: visible; white-space: pre;" data-bb="6329">Stage3</text></g><g class="xtick" data-bb="6340"><text text-anchor="middle" x="0" y="469" transform="translate(344.5,0)" style="font-family: 'Open Sans', verdana, arial, sans-serif; font-size: 13px; fill: rgb(68, 68, 68); fill-opacity: 1; visibility: visible; white-space: pre;" data-bb="6330">Stage4</text></g><g class="xtick" data-bb="6341"><text text-anchor="middle" x="0" y="469" transform="translate(421.06,0)" style="font-family: 'Open Sans', verdana, arial, sans-serif; font-size: 13px; fill: rgb(68, 68, 68); fill-opacity: 1; visibility: visible; white-space: pre;" data-bb="6331">Stage5</text></g><g class="xtick" data-bb="6342"><text text-anchor="middle" x="0" y="469" transform="translate(497.61,0)" style="font-family: 'Open Sans', verdana, arial, sans-serif; font-size: 13px; fill: rgb(68, 68, 68); fill-opacity: 1; visibility: visible; white-space: pre;" data-bb="6332">Stage6</text></g><g class="xtick" data-bb="6343"><text text-anchor="middle" x="0" y="469" transform="translate(574.17,0)" style="font-family: 'Open Sans', verdana, arial, sans-serif; font-size: 13px; fill: rgb(68, 68, 68); fill-opacity: 1; visibility: visible; white-space: pre;" data-bb="6333">Stage7</text></g><g class="xtick" data-bb="6344"><text text-anchor="middle" x="0" y="469" transform="translate(650.72,0)" style="font-family: 'Open Sans', verdana, arial, sans-serif; font-size: 13px; fill: rgb(68, 68, 68); fill-opacity: 1; visibility: visible; white-space: pre;" data-bb="6334">Stage8</text></g></g><g class="yaxislayer" transform="translate(80,50)"><g class="ytick" data-bb="6346"><text text-anchor="end" x="-6" y="6.5" transform="translate(0,450)" style="font-family: 'Open Sans', verdana, arial, sans-serif; font-size: 13px; fill: rgb(68, 68, 68); fill-opacity: 1; visibility: visible; white-space: pre;">1115</text></g><g class="ytick" data-bb="6347"><text text-anchor="end" x="-6" y="6.5" transform="translate(0,342.86)" style="font-family: 'Open Sans', verdana, arial, sans-serif; font-size: 13px; fill: rgb(68, 68, 68); fill-opacity: 1; visibility: visible; white-space: pre;">1120</text></g><g class="ytick" data-bb="6348"><text text-anchor="end" x="-6" y="6.5" transform="translate(0,235.71)" style="font-family: 'Open Sans', verdana, arial, sans-serif; font-size: 13px; fill: rgb(68, 68, 68); fill-opacity: 1; visibility: visible; white-space: pre;">1125</text></g><g class="ytick" data-bb="6349"><text text-anchor="end" x="-6" y="6.5" transform="translate(0,128.57)" style="font-family: 'Open Sans', verdana, arial, sans-serif; font-size: 13px; fill: rgb(68, 68, 68); fill-opacity: 1; visibility: visible; white-space: pre;">1130</text></g><g class="ytick" data-bb="6350"><text text-anchor="end" x="-6" y="6.5" transform="translate(0,21.43)" style="font-family: 'Open Sans', verdana, arial, sans-serif; font-size: 13px; fill: rgb(68, 68, 68); fill-opacity: 1; visibility: visible; white-space: pre;">1135</text></g></g><g class="overaxes"/></g></g><g class="ternarylayer"/><g class="layer-above"><g class="imagelayer"/><g class="shapelayer"/></g><g class="pielayer"/><g class="glimages"/><g class="geoimages"/><text class="js-plot-link-container" y="591" text-anchor="end" x="943" style="font-family: 'Open Sans', Arial, sans-serif; font-size: 12px; fill: rgb(68, 68, 68); pointer-events: all; visibility: visible;"><tspan class="js-link-to-tool"/><tspan class="js-link-spacer"/><tspan class="js-sourcelinks"/></text><defs id="topdefs-5d1580"><clipPath id="legend5d1580"><rect width="155" height="162" x="0" y="0"/></clipPath></defs><g class="infolayer"><g class="g-gtitle"><text class="gtitle" x="475" y="25" text-anchor="middle" style="font-family: 'Open Sans', verdana, arial, sans-serif; font-size: 20px; fill: rgb(68, 68, 68); opacity: 1; font-weight: normal; white-space: pre; visibility: visible;">Parameter Tuning and Model Ensemble</text></g><g class="g-xtitle" data-bb="6335"/><g class="g-ytitle" data-bb="6345" transform="translate(-3.734375,0)"/><g class="legend" pointer-events="all" transform="translate(782.78, 50)"><rect class="bg" shape-rendering="crispEdges" style="stroke: rgb(68, 68, 68); stroke-opacity: 1; fill: rgb(255, 255, 255); fill-opacity: 1; stroke-width: 0px;" width="155" height="162" x="0" y="0"/><g class="scrollbox" transform="translate(0, 0)" clip-path="url(#legend5d1580)"><g class="groups"><g class="traces" transform="translate(0, 14.5)" style="opacity: 1;"><g class="legendfill"/><g class="legendlines"><path class="js-line" d="M5,0h30" style="fill: none; stroke: rgb(37, 37, 37); stroke-opacity: 1; stroke-width: 2px;"/></g><g class="legendsymbols" style="opacity: 1;"><g class="legendpoints"><path class="scatterpts" transform="translate(20,0)" d="M3,0A3,3 0 1,1 0,-3A3,3 0 0,1 3,0Z" style="opacity: 1; stroke-width: 0px; fill: rgb(37, 37, 37); fill-opacity: 1;"/></g></g><text class="legendtext user-select-none" x="40" y="4.680000000000001" style="text-anchor: start; font-family: 'Open Sans', verdana, arial, sans-serif; font-size: 12px; fill: rgb(68, 68, 68); fill-opacity: 1; white-space: pre; visibility: visible;" data-bb="6351">MLP 3 Layers</text><rect class="legendtoggle" pointer-events="all" style="cursor: pointer; fill: rgb(0, 0, 0); fill-opacity: 0;" x="0" y="-9.5" width="195" height="19"/></g><g class="traces" transform="translate(0, 33.5)" style="opacity: 1;"><g class="legendfill"/><g class="legendlines"><path class="js-line" d="M5,0h30" style="fill: none; stroke: rgb(99, 99, 99); stroke-opacity: 1; stroke-width: 2px;"/></g><g class="legendsymbols" style="opacity: 1;"><g class="legendpoints"><path class="scatterpts" transform="translate(20,0)" d="M3,0A3,3 0 1,1 0,-3A3,3 0 0,1 3,0Z" style="opacity: 1; stroke-width: 0px; fill: rgb(99, 99, 99); fill-opacity: 1;"/></g></g><text class="legendtext user-select-none" x="40" y="4.680000000000001" style="text-anchor: start; font-family: 'Open Sans', verdana, arial, sans-serif; font-size: 12px; fill: rgb(68, 68, 68); fill-opacity: 1; white-space: pre; visibility: visible;" data-bb="6352">MLP 3 Layers</text><rect class="legendtoggle" pointer-events="all" style="cursor: pointer; fill: rgb(0, 0, 0); fill-opacity: 0;" x="0" y="-9.5" width="195" height="19"/></g><g class="traces" transform="translate(0, 52.5)" style="opacity: 1;"><g class="legendfill"/><g class="legendlines"><path class="js-line" d="M5,0h30" style="fill: none; stroke: rgb(150, 150, 150); stroke-opacity: 1; stroke-width: 2px;"/></g><g class="legendsymbols" style="opacity: 1;"><g class="legendpoints"><path class="scatterpts" transform="translate(20,0)" d="M3,0A3,3 0 1,1 0,-3A3,3 0 0,1 3,0Z" style="opacity: 1; stroke-width: 0px; fill: rgb(150, 150, 150); fill-opacity: 1;"/></g></g><text class="legendtext user-select-none" x="40" y="4.680000000000001" style="text-anchor: start; font-family: 'Open Sans', verdana, arial, sans-serif; font-size: 12px; fill: rgb(68, 68, 68); fill-opacity: 1; white-space: pre; visibility: visible;" data-bb="6353">MLP 4 Layers</text><rect class="legendtoggle" pointer-events="all" style="cursor: pointer; fill: rgb(0, 0, 0); fill-opacity: 0;" x="0" y="-9.5" width="195" height="19"/></g><g class="traces" transform="translate(0, 71.5)" style="opacity: 1;"><g class="legendfill"/><g class="legendlines"><path class="js-line" d="M5,0h30" style="fill: none; stroke: rgb(31, 120, 180); stroke-opacity: 1; stroke-width: 2px;"/></g><g class="legendsymbols" style="opacity: 1;"><g class="legendpoints"><path class="scatterpts" transform="translate(20,0)" d="M3,0A3,3 0 1,1 0,-3A3,3 0 0,1 3,0Z" style="opacity: 1; stroke-width: 0px; fill: rgb(31, 120, 180); fill-opacity: 1;"/></g></g><text class="legendtext user-select-none" x="40" y="4.680000000000001" style="text-anchor: start; font-family: 'Open Sans', verdana, arial, sans-serif; font-size: 12px; fill: rgb(68, 68, 68); fill-opacity: 1; white-space: pre; visibility: visible;" data-bb="6354">XGB max_depth=8</text><rect class="legendtoggle" pointer-events="all" style="cursor: pointer; fill: rgb(0, 0, 0); fill-opacity: 0;" x="0" y="-9.5" width="195" height="19"/></g><g class="traces" transform="translate(0, 90.5)" style="opacity: 1;"><g class="legendfill"/><g class="legendlines"><path class="js-line" d="M5,0h30" style="fill: none; stroke: rgb(51, 160, 44); stroke-opacity: 1; stroke-width: 2px;"/></g><g class="legendsymbols" style="opacity: 1;"><g class="legendpoints"><path class="scatterpts" transform="translate(20,0)" d="M3,0A3,3 0 1,1 0,-3A3,3 0 0,1 3,0Z" style="opacity: 1; stroke-width: 0px; fill: rgb(51, 160, 44); fill-opacity: 1;"/></g></g><text class="legendtext user-select-none" x="40" y="4.680000000000001" style="text-anchor: start; font-family: 'Open Sans', verdana, arial, sans-serif; font-size: 12px; fill: rgb(68, 68, 68); fill-opacity: 1; white-space: pre; visibility: visible;" data-bb="6355">XGB max_depth=9</text><rect class="legendtoggle" pointer-events="all" style="cursor: pointer; fill: rgb(0, 0, 0); fill-opacity: 0;" x="0" y="-9.5" width="195" height="19"/></g><g class="traces" transform="translate(0, 109.5)" style="opacity: 1;"><g class="legendfill"/><g class="legendlines"><path class="js-line" d="M5,0h30" style="fill: none; stroke: rgb(227, 26, 28); stroke-opacity: 1; stroke-width: 2px;"/></g><g class="legendsymbols" style="opacity: 1;"><g class="legendpoints"><path class="scatterpts" transform="translate(20,0)" d="M3,0A3,3 0 1,1 0,-3A3,3 0 0,1 3,0Z" style="opacity: 1; stroke-width: 0px; fill: rgb(227, 26, 28); fill-opacity: 1;"/></g></g><text class="legendtext user-select-none" x="40" y="4.680000000000001" style="text-anchor: start; font-family: 'Open Sans', verdana, arial, sans-serif; font-size: 12px; fill: rgb(68, 68, 68); fill-opacity: 1; white-space: pre; visibility: visible;" data-bb="6356">XGB max_depth=10</text><rect class="legendtoggle" pointer-events="all" style="cursor: pointer; fill: rgb(0, 0, 0); fill-opacity: 0;" x="0" y="-9.5" width="195" height="19"/></g><g class="traces" transform="translate(0, 128.5)" style="opacity: 1;"><g class="legendfill"/><g class="legendlines"><path class="js-line" d="M5,0h30" style="fill: none; stroke: rgb(255, 127, 0); stroke-opacity: 1; stroke-width: 2px;"/></g><g class="legendsymbols" style="opacity: 1;"><g class="legendpoints"><path class="scatterpts" transform="translate(20,0)" d="M3,0A3,3 0 1,1 0,-3A3,3 0 0,1 3,0Z" style="opacity: 1; stroke-width: 0px; fill: rgb(255, 127, 0); fill-opacity: 1;"/></g></g><text class="legendtext user-select-none" x="40" y="4.680000000000001" style="text-anchor: start; font-family: 'Open Sans', verdana, arial, sans-serif; font-size: 12px; fill: rgb(68, 68, 68); fill-opacity: 1; white-space: pre; visibility: visible;" data-bb="6357">XGB max_depth=11</text><rect class="legendtoggle" pointer-events="all" style="cursor: pointer; fill: rgb(0, 0, 0); fill-opacity: 0;" x="0" y="-9.5" width="195" height="19"/></g><g class="traces" transform="translate(0, 147.5)" style="opacity: 1;"><g class="legendfill"/><g class="legendlines"><path class="js-line" d="M5,0h30" style="fill: none; stroke: rgb(106, 61, 154); stroke-opacity: 1; stroke-width: 2px;"/></g><g class="legendsymbols" style="opacity: 1;"><g class="legendpoints"><path class="scatterpts" transform="translate(20,0)" d="M3,0A3,3 0 1,1 0,-3A3,3 0 0,1 3,0Z" style="opacity: 1; stroke-width: 0px; fill: rgb(106, 61, 154); fill-opacity: 1;"/></g></g><text class="legendtext user-select-none" x="40" y="4.680000000000001" style="text-anchor: start; font-family: 'Open Sans', verdana, arial, sans-serif; font-size: 12px; fill: rgb(68, 68, 68); fill-opacity: 1; white-space: pre; visibility: visible;" data-bb="6358">XGB max_depth=12</text><rect class="legendtoggle" pointer-events="all" x="0" y="-9.5" width="195" height="19" style="cursor: pointer; fill: rgb(0, 0, 0); fill-opacity: 0;"/></g></g></g><rect class="scrollbar" rx="20" ry="2" width="0" height="0" style="fill: rgb(128, 139, 164); fill-opacity: 1;"/></g></g></svg>