<svg class="main-svg" xmlns="http://www.w3.org/2000/svg" xmlns:xlink="http://www.w3.org/1999/xlink" width="950" height="600"><rect x="0" y="0" width="950" height="600" style="fill: rgb(255, 255, 255); fill-opacity: 1;"/><defs id="defs-d3114f"><g class="clips"><clipPath class="axesclip" id="clipd3114fx"><rect x="80" y="0" width="708" height="600"/></clipPath><clipPath class="axesclip" id="clipd3114fy"><rect x="0" y="50" width="950" height="450"/></clipPath><clipPath class="axesclip" id="clipd3114fxy"><rect x="80" y="50" width="708" height="450"/></clipPath><clipPath class="plotclip" id="clipd3114fxyplot"><rect width="708" height="450"/></clipPath></g></defs><g class="layer-below"><g class="imagelayer"/><g class="shapelayer"/></g><g class="cartesianlayer"><g class="subplot xy"><rect class="bg" x="76" y="46" width="716" height="458" style="stroke-width: 0px; fill: rgb(255, 255, 255); fill-opacity: 1;"/><g class="layer-subplot"><g class="shapelayer"/><g class="imagelayer"/></g><g class="gridlayer" transform="translate(80,50)"><path class="xgrid crisp" d="M0,0v450" transform="translate(43.25,0)" style="stroke: rgb(238, 238, 238); stroke-opacity: 1; stroke-width: 1px;"/><path class="xgrid crisp" d="M0,0v450" transform="translate(146.83,0)" style="stroke: rgb(238, 238, 238); stroke-opacity: 1; stroke-width: 1px;"/><path class="xgrid crisp" d="M0,0v450" transform="translate(250.42,0)" style="stroke: rgb(238, 238, 238); stroke-opacity: 1; stroke-width: 1px;"/><path class="xgrid crisp" d="M0,0v450" transform="translate(354,0)" style="stroke: rgb(238, 238, 238); stroke-opacity: 1; stroke-width: 1px;"/><path class="xgrid crisp" d="M0,0v450" transform="translate(457.58,0)" style="stroke: rgb(238, 238, 238); stroke-opacity: 1; stroke-width: 1px;"/><path class="xgrid crisp" d="M0,0v450" transform="translate(561.17,0)" style="stroke: rgb(238, 238, 238); stroke-opacity: 1; stroke-width: 1px;"/><path class="xgrid crisp" d="M0,0v450" transform="translate(664.75,0)" style="stroke: rgb(238, 238, 238); stroke-opacity: 1; stroke-width: 1px;"/><path class="ygrid crisp" d="M0,0h708" transform="translate(0,395.58)" style="stroke: rgb(238, 238, 238); stroke-opacity: 1; stroke-width: 1px;"/><path class="ygrid crisp" d="M0,0h708" transform="translate(0,340.98)" style="stroke: rgb(238, 238, 238); stroke-opacity: 1; stroke-width: 1px;"/><path class="ygrid crisp" d="M0,0h708" transform="translate(0,286.39)" style="stroke: rgb(238, 238, 238); stroke-opacity: 1; stroke-width: 1px;"/><path class="ygrid crisp" d="M0,0h708" transform="translate(0,231.79)" style="stroke: rgb(238, 238, 238); stroke-opacity: 1; stroke-width: 1px;"/><path class="ygrid crisp" d="M0,0h708" transform="translate(0,177.19)" style="stroke: rgb(238, 238, 238); stroke-opacity: 1; stroke-width: 1px;"/><path class="ygrid crisp" d="M0,0h708" transform="translate(0,122.6)" style="stroke: rgb(238, 238, 238); stroke-opacity: 1; stroke-width: 1px;"/><path class="ygrid crisp" d="M0,0h708" transform="translate(0,68)" style="stroke: rgb(238, 238, 238); stroke-opacity: 1; stroke-width: 1px;"/><path class="ygrid crisp" d="M0,0h708" transform="translate(0,13.4)" style="stroke: rgb(238, 238, 238); stroke-opacity: 1; stroke-width: 1px;"/></g><g class="overgrid"/><g class="zerolinelayer" transform="translate(80,50)"/><g class="overzero"/><g class="plot" transform="translate(80, 50)" clip-path="url(#clipd3114fxyplot)"><g class="imagelayer"/><g class="maplayer"/><g class="barlayer"/><g class="boxlayer"/><g class="scatterlayer"><g class="trace scatter trace5aa7bd" style="stroke-miterlimit: 2; opacity: 1;"><path class="js-line" d="M43.25,257.55L146.83,279.29L250.42,290.21L354,290.21L457.58,292.06L561.17,315.19L664.75,404.88" style="vector-effect: non-scaling-stroke; fill: none; stroke: rgb(166, 206, 227); stroke-opacity: 1; stroke-width: 2px; opacity: 1;"/><g class="points"><path class="point" d="M3,0A3,3 0 1,1 0,-3A3,3 0 0,1 3,0Z" transform="translate(43.25,257.55)" style="opacity: 1; stroke-width: 0px; fill: rgb(166, 206, 227); fill-opacity: 1;"/><path class="point" d="M3,0A3,3 0 1,1 0,-3A3,3 0 0,1 3,0Z" transform="translate(146.83,279.29)" style="opacity: 1; stroke-width: 0px; fill: rgb(166, 206, 227); fill-opacity: 1;"/><path class="point" d="M3,0A3,3 0 1,1 0,-3A3,3 0 0,1 3,0Z" transform="translate(250.42,290.21)" style="opacity: 1; stroke-width: 0px; fill: rgb(166, 206, 227); fill-opacity: 1;"/><path class="point" d="M3,0A3,3 0 1,1 0,-3A3,3 0 0,1 3,0Z" transform="translate(354,290.21)" style="opacity: 1; stroke-width: 0px; fill: rgb(166, 206, 227); fill-opacity: 1;"/><path class="point" d="M3,0A3,3 0 1,1 0,-3A3,3 0 0,1 3,0Z" transform="translate(457.58,292.06)" style="opacity: 1; stroke-width: 0px; fill: rgb(166, 206, 227); fill-opacity: 1;"/><path class="point" d="M3,0A3,3 0 1,1 0,-3A3,3 0 0,1 3,0Z" transform="translate(561.17,315.19)" style="opacity: 1; stroke-width: 0px; fill: rgb(166, 206, 227); fill-opacity: 1;"/><path class="point" d="M3,0A3,3 0 1,1 0,-3A3,3 0 0,1 3,0Z" transform="translate(664.75,404.88)" style="opacity: 1; stroke-width: 0px; fill: rgb(166, 206, 227); fill-opacity: 1;"/></g></g><g class="trace scatter trace0b7f44" style="stroke-miterlimit: 2; opacity: 1;"><path class="js-line" d="M43.25,26.25L146.83,267.93L250.42,280.63L354,294.41L457.58,302.97L561.17,333.28L664.75,404.88" style="vector-effect: non-scaling-stroke; fill: none; stroke: rgb(31, 120, 180); stroke-opacity: 1; stroke-width: 2px; opacity: 1;"/><g class="points"><path class="point" d="M3,0A3,3 0 1,1 0,-3A3,3 0 0,1 3,0Z" transform="translate(43.25,26.25)" style="opacity: 1; stroke-width: 0px; fill: rgb(31, 120, 180); fill-opacity: 1;"/><path class="point" d="M3,0A3,3 0 1,1 0,-3A3,3 0 0,1 3,0Z" transform="translate(146.83,267.93)" style="opacity: 1; stroke-width: 0px; fill: rgb(31, 120, 180); fill-opacity: 1;"/><path class="point" d="M3,0A3,3 0 1,1 0,-3A3,3 0 0,1 3,0Z" transform="translate(250.42,280.63)" style="opacity: 1; stroke-width: 0px; fill: rgb(31, 120, 180); fill-opacity: 1;"/><path class="point" d="M3,0A3,3 0 1,1 0,-3A3,3 0 0,1 3,0Z" transform="translate(354,294.41)" style="opacity: 1; stroke-width: 0px; fill: rgb(31, 120, 180); fill-opacity: 1;"/><path class="point" d="M3,0A3,3 0 1,1 0,-3A3,3 0 0,1 3,0Z" transform="translate(457.58,302.97)" style="opacity: 1; stroke-width: 0px; fill: rgb(31, 120, 180); fill-opacity: 1;"/><path class="point" d="M3,0A3,3 0 1,1 0,-3A3,3 0 0,1 3,0Z" transform="translate(561.17,333.28)" style="opacity: 1; stroke-width: 0px; fill: rgb(31, 120, 180); fill-opacity: 1;"/><path class="point" d="M3,0A3,3 0 1,1 0,-3A3,3 0 0,1 3,0Z" transform="translate(664.75,404.88)" style="opacity: 1; stroke-width: 0px; fill: rgb(31, 120, 180); fill-opacity: 1;"/></g></g><g class="trace scatter tracead85cd" style="stroke-miterlimit: 2; opacity: 1;"><path class="js-line" d="M43.25,268.46L146.83,286.69L250.42,300.27L354,300.27L457.58,312.83L561.17,340.66L664.75,395.96" style="vector-effect: non-scaling-stroke; fill: none; stroke: rgb(178, 223, 138); stroke-opacity: 1; stroke-width: 2px; opacity: 1;"/><g class="points"><path class="point" d="M3,0A3,3 0 1,1 0,-3A3,3 0 0,1 3,0Z" transform="translate(43.25,268.46)" style="opacity: 1; stroke-width: 0px; fill: rgb(178, 223, 138); fill-opacity: 1;"/><path class="point" d="M3,0A3,3 0 1,1 0,-3A3,3 0 0,1 3,0Z" transform="translate(146.83,286.69)" style="opacity: 1; stroke-width: 0px; fill: rgb(178, 223, 138); fill-opacity: 1;"/><path class="point" d="M3,0A3,3 0 1,1 0,-3A3,3 0 0,1 3,0Z" transform="translate(250.42,300.27)" style="opacity: 1; stroke-width: 0px; fill: rgb(178, 223, 138); fill-opacity: 1;"/><path class="point" d="M3,0A3,3 0 1,1 0,-3A3,3 0 0,1 3,0Z" transform="translate(354,300.27)" style="opacity: 1; stroke-width: 0px; fill: rgb(178, 223, 138); fill-opacity: 1;"/><path class="point" d="M3,0A3,3 0 1,1 0,-3A3,3 0 0,1 3,0Z" transform="translate(457.58,312.83)" style="opacity: 1; stroke-width: 0px; fill: rgb(178, 223, 138); fill-opacity: 1;"/><path class="point" d="M3,0A3,3 0 1,1 0,-3A3,3 0 0,1 3,0Z" transform="translate(561.17,340.66)" style="opacity: 1; stroke-width: 0px; fill: rgb(178, 223, 138); fill-opacity: 1;"/><path class="point" d="M3,0A3,3 0 1,1 0,-3A3,3 0 0,1 3,0Z" transform="translate(664.75,395.96)" style="opacity: 1; stroke-width: 0px; fill: rgb(178, 223, 138); fill-opacity: 1;"/></g></g><g class="trace scatter traceeb833a" style="stroke-miterlimit: 2; opacity: 1;"><path class="js-line" d="M43.25,53.35L146.83,286.55L250.42,294.36L354,305.31L457.58,305.31L561.17,321.45L664.75,395.96" style="vector-effect: non-scaling-stroke; fill: none; stroke: rgb(51, 160, 44); stroke-opacity: 1; stroke-width: 2px; opacity: 1;"/><g class="points"><path class="point" d="M3,0A3,3 0 1,1 0,-3A3,3 0 0,1 3,0Z" transform="translate(43.25,53.35)" style="opacity: 1; stroke-width: 0px; fill: rgb(51, 160, 44); fill-opacity: 1;"/><path class="point" d="M3,0A3,3 0 1,1 0,-3A3,3 0 0,1 3,0Z" transform="translate(146.83,286.55)" style="opacity: 1; stroke-width: 0px; fill: rgb(51, 160, 44); fill-opacity: 1;"/><path class="point" d="M3,0A3,3 0 1,1 0,-3A3,3 0 0,1 3,0Z" transform="translate(250.42,294.36)" style="opacity: 1; stroke-width: 0px; fill: rgb(51, 160, 44); fill-opacity: 1;"/><path class="point" d="M3,0A3,3 0 1,1 0,-3A3,3 0 0,1 3,0Z" transform="translate(354,305.31)" style="opacity: 1; stroke-width: 0px; fill: rgb(51, 160, 44); fill-opacity: 1;"/><path class="point" d="M3,0A3,3 0 1,1 0,-3A3,3 0 0,1 3,0Z" transform="translate(457.58,305.31)" style="opacity: 1; stroke-width: 0px; fill: rgb(51, 160, 44); fill-opacity: 1;"/><path class="point" d="M3,0A3,3 0 1,1 0,-3A3,3 0 0,1 3,0Z" transform="translate(561.17,321.45)" style="opacity: 1; stroke-width: 0px; fill: rgb(51, 160, 44); fill-opacity: 1;"/><path class="point" d="M3,0A3,3 0 1,1 0,-3A3,3 0 0,1 3,0Z" transform="translate(664.75,395.96)" style="opacity: 1; stroke-width: 0px; fill: rgb(51, 160, 44); fill-opacity: 1;"/></g></g><g class="trace scatter trace8528f1" style="stroke-miterlimit: 2; opacity: 1;"><path class="js-line" d="M43.25,255.54L146.83,293.43L250.42,298.75L354,303.63L457.58,315.53L561.17,343.76L664.75,412.36" style="vector-effect: non-scaling-stroke; fill: none; stroke: rgb(251, 154, 153); stroke-opacity: 1; stroke-width: 2px; opacity: 1;"/><g class="points"><path class="point" d="M3,0A3,3 0 1,1 0,-3A3,3 0 0,1 3,0Z" transform="translate(43.25,255.54)" style="opacity: 1; stroke-width: 0px; fill: rgb(251, 154, 153); fill-opacity: 1;"/><path class="point" d="M3,0A3,3 0 1,1 0,-3A3,3 0 0,1 3,0Z" transform="translate(146.83,293.43)" style="opacity: 1; stroke-width: 0px; fill: rgb(251, 154, 153); fill-opacity: 1;"/><path class="point" d="M3,0A3,3 0 1,1 0,-3A3,3 0 0,1 3,0Z" transform="translate(250.42,298.75)" style="opacity: 1; stroke-width: 0px; fill: rgb(251, 154, 153); fill-opacity: 1;"/><path class="point" d="M3,0A3,3 0 1,1 0,-3A3,3 0 0,1 3,0Z" transform="translate(354,303.63)" style="opacity: 1; stroke-width: 0px; fill: rgb(251, 154, 153); fill-opacity: 1;"/><path class="point" d="M3,0A3,3 0 1,1 0,-3A3,3 0 0,1 3,0Z" transform="translate(457.58,315.53)" style="opacity: 1; stroke-width: 0px; fill: rgb(251, 154, 153); fill-opacity: 1;"/><path class="point" d="M3,0A3,3 0 1,1 0,-3A3,3 0 0,1 3,0Z" transform="translate(561.17,343.76)" style="opacity: 1; stroke-width: 0px; fill: rgb(251, 154, 153); fill-opacity: 1;"/><path class="point" d="M3,0A3,3 0 1,1 0,-3A3,3 0 0,1 3,0Z" transform="translate(664.75,412.36)" style="opacity: 1; stroke-width: 0px; fill: rgb(251, 154, 153); fill-opacity: 1;"/></g></g><g class="trace scatter trace924bb0" style="stroke-miterlimit: 2; opacity: 1;"><path class="js-line" d="M43.25,72.52L146.83,308.88L250.42,312.24L354,314.86L457.58,314.86L561.17,332.4L664.75,412.36" style="vector-effect: non-scaling-stroke; fill: none; stroke: rgb(227, 26, 28); stroke-opacity: 1; stroke-width: 2px; opacity: 1;"/><g class="points"><path class="point" d="M3,0A3,3 0 1,1 0,-3A3,3 0 0,1 3,0Z" transform="translate(43.25,72.52)" style="opacity: 1; stroke-width: 0px; fill: rgb(227, 26, 28); fill-opacity: 1;"/><path class="point" d="M3,0A3,3 0 1,1 0,-3A3,3 0 0,1 3,0Z" transform="translate(146.83,308.88)" style="opacity: 1; stroke-width: 0px; fill: rgb(227, 26, 28); fill-opacity: 1;"/><path class="point" d="M3,0A3,3 0 1,1 0,-3A3,3 0 0,1 3,0Z" transform="translate(250.42,312.24)" style="opacity: 1; stroke-width: 0px; fill: rgb(227, 26, 28); fill-opacity: 1;"/><path class="point" d="M3,0A3,3 0 1,1 0,-3A3,3 0 0,1 3,0Z" transform="translate(354,314.86)" style="opacity: 1; stroke-width: 0px; fill: rgb(227, 26, 28); fill-opacity: 1;"/><path class="point" d="M3,0A3,3 0 1,1 0,-3A3,3 0 0,1 3,0Z" transform="translate(457.58,314.86)" style="opacity: 1; stroke-width: 0px; fill: rgb(227, 26, 28); fill-opacity: 1;"/><path class="point" d="M3,0A3,3 0 1,1 0,-3A3,3 0 0,1 3,0Z" transform="translate(561.17,332.4)" style="opacity: 1; stroke-width: 0px; fill: rgb(227, 26, 28); fill-opacity: 1;"/><path class="point" d="M3,0A3,3 0 1,1 0,-3A3,3 0 0,1 3,0Z" transform="translate(664.75,412.36)" style="opacity: 1; stroke-width: 0px; fill: rgb(227, 26, 28); fill-opacity: 1;"/></g></g><g class="trace scatter trace11a82e" style="stroke-miterlimit: 2; opacity: 1;"><path class="js-line" d="M43.25,264.69L146.83,287.09L250.42,301.98L354,311.46L457.58,313.82L561.17,343.14L664.75,423.75" style="vector-effect: non-scaling-stroke; fill: none; stroke: rgb(253, 191, 111); stroke-opacity: 1; stroke-width: 2px; opacity: 1;"/><g class="points"><path class="point" d="M3,0A3,3 0 1,1 0,-3A3,3 0 0,1 3,0Z" transform="translate(43.25,264.69)" style="opacity: 1; stroke-width: 0px; fill: rgb(253, 191, 111); fill-opacity: 1;"/><path class="point" d="M3,0A3,3 0 1,1 0,-3A3,3 0 0,1 3,0Z" transform="translate(146.83,287.09)" style="opacity: 1; stroke-width: 0px; fill: rgb(253, 191, 111); fill-opacity: 1;"/><path class="point" d="M3,0A3,3 0 1,1 0,-3A3,3 0 0,1 3,0Z" transform="translate(250.42,301.98)" style="opacity: 1; stroke-width: 0px; fill: rgb(253, 191, 111); fill-opacity: 1;"/><path class="point" d="M3,0A3,3 0 1,1 0,-3A3,3 0 0,1 3,0Z" transform="translate(354,311.46)" style="opacity: 1; stroke-width: 0px; fill: rgb(253, 191, 111); fill-opacity: 1;"/><path class="point" d="M3,0A3,3 0 1,1 0,-3A3,3 0 0,1 3,0Z" transform="translate(457.58,313.82)" style="opacity: 1; stroke-width: 0px; fill: rgb(253, 191, 111); fill-opacity: 1;"/><path class="point" d="M3,0A3,3 0 1,1 0,-3A3,3 0 0,1 3,0Z" transform="translate(561.17,343.14)" style="opacity: 1; stroke-width: 0px; fill: rgb(253, 191, 111); fill-opacity: 1;"/><path class="point" d="M3,0A3,3 0 1,1 0,-3A3,3 0 0,1 3,0Z" transform="translate(664.75,423.75)" style="opacity: 1; stroke-width: 0px; fill: rgb(253, 191, 111); fill-opacity: 1;"/></g></g><g class="trace scatter trace208736" style="stroke-miterlimit: 2; opacity: 1;"><path class="js-line" d="M43.25,82.29L146.83,311.56L250.42,317.21L354,319.85L457.58,321.7L561.17,351.72L664.75,423.75" style="vector-effect: non-scaling-stroke; fill: none; stroke: rgb(255, 127, 0); stroke-opacity: 1; stroke-width: 2px; opacity: 1;"/><g class="points"><path class="point" d="M3,0A3,3 0 1,1 0,-3A3,3 0 0,1 3,0Z" transform="translate(43.25,82.29)" style="opacity: 1; stroke-width: 0px; fill: rgb(255, 127, 0); fill-opacity: 1;"/><path class="point" d="M3,0A3,3 0 1,1 0,-3A3,3 0 0,1 3,0Z" transform="translate(146.83,311.56)" style="opacity: 1; stroke-width: 0px; fill: rgb(255, 127, 0); fill-opacity: 1;"/><path class="point" d="M3,0A3,3 0 1,1 0,-3A3,3 0 0,1 3,0Z" transform="translate(250.42,317.21)" style="opacity: 1; stroke-width: 0px; fill: rgb(255, 127, 0); fill-opacity: 1;"/><path class="point" d="M3,0A3,3 0 1,1 0,-3A3,3 0 0,1 3,0Z" transform="translate(354,319.85)" style="opacity: 1; stroke-width: 0px; fill: rgb(255, 127, 0); fill-opacity: 1;"/><path class="point" d="M3,0A3,3 0 1,1 0,-3A3,3 0 0,1 3,0Z" transform="translate(457.58,321.7)" style="opacity: 1; stroke-width: 0px; fill: rgb(255, 127, 0); fill-opacity: 1;"/><path class="point" d="M3,0A3,3 0 1,1 0,-3A3,3 0 0,1 3,0Z" transform="translate(561.17,351.72)" style="opacity: 1; stroke-width: 0px; fill: rgb(255, 127, 0); fill-opacity: 1;"/><path class="point" d="M3,0A3,3 0 1,1 0,-3A3,3 0 0,1 3,0Z" transform="translate(664.75,423.75)" style="opacity: 1; stroke-width: 0px; fill: rgb(255, 127, 0); fill-opacity: 1;"/></g></g><g class="trace scatter trace381275" style="stroke-miterlimit: 2; opacity: 1;"><path class="js-line" d="M43.25,263.57L146.83,289.91L250.42,299.67L354,304.81L457.58,304.91L561.17,355.75L664.75,421.24" style="vector-effect: non-scaling-stroke; fill: none; stroke: rgb(202, 178, 214); stroke-opacity: 1; stroke-width: 2px; opacity: 1;"/><g class="points"><path class="point" d="M3,0A3,3 0 1,1 0,-3A3,3 0 0,1 3,0Z" transform="translate(43.25,263.57)" style="opacity: 1; stroke-width: 0px; fill: rgb(202, 178, 214); fill-opacity: 1;"/><path class="point" d="M3,0A3,3 0 1,1 0,-3A3,3 0 0,1 3,0Z" transform="translate(146.83,289.91)" style="opacity: 1; stroke-width: 0px; fill: rgb(202, 178, 214); fill-opacity: 1;"/><path class="point" d="M3,0A3,3 0 1,1 0,-3A3,3 0 0,1 3,0Z" transform="translate(250.42,299.67)" style="opacity: 1; stroke-width: 0px; fill: rgb(202, 178, 214); fill-opacity: 1;"/><path class="point" d="M3,0A3,3 0 1,1 0,-3A3,3 0 0,1 3,0Z" transform="translate(354,304.81)" style="opacity: 1; stroke-width: 0px; fill: rgb(202, 178, 214); fill-opacity: 1;"/><path class="point" d="M3,0A3,3 0 1,1 0,-3A3,3 0 0,1 3,0Z" transform="translate(457.58,304.91)" style="opacity: 1; stroke-width: 0px; fill: rgb(202, 178, 214); fill-opacity: 1;"/><path class="point" d="M3,0A3,3 0 1,1 0,-3A3,3 0 0,1 3,0Z" transform="translate(561.17,355.75)" style="opacity: 1; stroke-width: 0px; fill: rgb(202, 178, 214); fill-opacity: 1;"/><path class="point" d="M3,0A3,3 0 1,1 0,-3A3,3 0 0,1 3,0Z" transform="translate(664.75,421.24)" style="opacity: 1; stroke-width: 0px; fill: rgb(202, 178, 214); fill-opacity: 1;"/></g></g><g class="trace scatter trace1fac9e" style="stroke-miterlimit: 2; opacity: 1;"><path class="js-line" d="M43.25,108.62L146.83,313.68L250.42,326.62L457.58,326.62L561.17,353.16L664.75,421.24" style="vector-effect: non-scaling-stroke; fill: none; stroke: rgb(106, 61, 154); stroke-opacity: 1; stroke-width: 2px; opacity: 1;"/><g class="points"><path class="point" d="M3,0A3,3 0 1,1 0,-3A3,3 0 0,1 3,0Z" transform="translate(43.25,108.62)" style="opacity: 1; stroke-width: 0px; fill: rgb(106, 61, 154); fill-opacity: 1;"/><path class="point" d="M3,0A3,3 0 1,1 0,-3A3,3 0 0,1 3,0Z" transform="translate(146.83,313.68)" style="opacity: 1; stroke-width: 0px; fill: rgb(106, 61, 154); fill-opacity: 1;"/><path class="point" d="M3,0A3,3 0 1,1 0,-3A3,3 0 0,1 3,0Z" transform="translate(250.42,326.62)" style="opacity: 1; stroke-width: 0px; fill: rgb(106, 61, 154); fill-opacity: 1;"/><path class="point" d="M3,0A3,3 0 1,1 0,-3A3,3 0 0,1 3,0Z" transform="translate(354,326.62)" style="opacity: 1; stroke-width: 0px; fill: rgb(106, 61, 154); fill-opacity: 1;"/><path class="point" d="M3,0A3,3 0 1,1 0,-3A3,3 0 0,1 3,0Z" transform="translate(457.58,326.62)" style="opacity: 1; stroke-width: 0px; fill: rgb(106, 61, 154); fill-opacity: 1;"/><path class="point" d="M3,0A3,3 0 1,1 0,-3A3,3 0 0,1 3,0Z" transform="translate(561.17,353.16)" style="opacity: 1; stroke-width: 0px; fill: rgb(106, 61, 154); fill-opacity: 1;"/><path class="point" d="M3,0A3,3 0 1,1 0,-3A3,3 0 0,1 3,0Z" transform="translate(664.75,421.24)" style="opacity: 1; stroke-width: 0px; fill: rgb(106, 61, 154); fill-opacity: 1;"/></g></g></g></g><g class="overplot"/><path class="xlines crisp" transform="translate(80,50)" d="M-5,454.5h718" style="fill: none; stroke-width: 1px; stroke: rgb(0, 0, 0); stroke-opacity: 0;"/><path class="ylines crisp" transform="translate(80,50)" d="M-4.5,-5v459" stroke-width="1px" style="fill: none; stroke: rgb(0, 0, 0); stroke-opacity: 0;"/><g class="overlines"/><g class="xaxislayer" transform="translate(80,50)"><g class="xtick" data-bb="504"><text text-anchor="middle" x="0" y="474" transform="translate(43.25,0)" style="font-family: 'Open Sans', verdana, arial, sans-serif; font-size: 18px; fill: rgb(68, 68, 68); fill-opacity: 1; visibility: visible; white-space: pre;" data-bb="496">Stage0</text></g><g class="xtick" data-bb="505"><text text-anchor="middle" x="0" y="474" transform="translate(146.83,0)" style="font-family: 'Open Sans', verdana, arial, sans-serif; font-size: 18px; fill: rgb(68, 68, 68); fill-opacity: 1; visibility: visible; white-space: pre;" data-bb="497">Stage1</text></g><g class="xtick" data-bb="506"><text text-anchor="middle" x="0" y="474" transform="translate(250.42,0)" style="font-family: 'Open Sans', verdana, arial, sans-serif; font-size: 18px; fill: rgb(68, 68, 68); fill-opacity: 1; visibility: visible; white-space: pre;" data-bb="498">Stage2</text></g><g class="xtick" data-bb="507"><text text-anchor="middle" x="0" y="474" transform="translate(354,0)" style="font-family: 'Open Sans', verdana, arial, sans-serif; font-size: 18px; fill: rgb(68, 68, 68); fill-opacity: 1; visibility: visible; white-space: pre;" data-bb="499">Stage3</text></g><g class="xtick" data-bb="508"><text text-anchor="middle" x="0" y="474" transform="translate(457.58,0)" style="font-family: 'Open Sans', verdana, arial, sans-serif; font-size: 18px; fill: rgb(68, 68, 68); fill-opacity: 1; visibility: visible; white-space: pre;" data-bb="500">Stage4</text></g><g class="xtick" data-bb="509"><text text-anchor="middle" x="0" y="474" transform="translate(561.17,0)" style="font-family: 'Open Sans', verdana, arial, sans-serif; font-size: 18px; fill: rgb(68, 68, 68); fill-opacity: 1; visibility: visible; white-space: pre;" data-bb="501">Stage5</text></g><g class="xtick" data-bb="510"><text text-anchor="middle" x="0" y="474" transform="translate(664.75,0)" style="font-family: 'Open Sans', verdana, arial, sans-serif; font-size: 18px; fill: rgb(68, 68, 68); fill-opacity: 1; visibility: visible; white-space: pre;" data-bb="502">Stage6</text></g></g><g class="yaxislayer" transform="translate(80,50)"><g class="ytick" data-bb="512"><text text-anchor="end" x="-6" y="9" transform="translate(0,395.58)" style="font-family: 'Open Sans', verdana, arial, sans-serif; font-size: 18px; fill: rgb(68, 68, 68); fill-opacity: 1; visibility: visible; white-space: pre;">1122</text></g><g class="ytick" data-bb="513"><text text-anchor="end" x="-6" y="9" transform="translate(0,340.98)" style="font-family: 'Open Sans', verdana, arial, sans-serif; font-size: 18px; fill: rgb(68, 68, 68); fill-opacity: 1; visibility: visible; white-space: pre;">1124</text></g><g class="ytick" data-bb="514"><text text-anchor="end" x="-6" y="9" transform="translate(0,286.39)" style="font-family: 'Open Sans', verdana, arial, sans-serif; font-size: 18px; fill: rgb(68, 68, 68); fill-opacity: 1; visibility: visible; white-space: pre;">1126</text></g><g class="ytick" data-bb="515"><text text-anchor="end" x="-6" y="9" transform="translate(0,231.79)" style="font-family: 'Open Sans', verdana, arial, sans-serif; font-size: 18px; fill: rgb(68, 68, 68); fill-opacity: 1; visibility: visible; white-space: pre;">1128</text></g><g class="ytick" data-bb="516"><text text-anchor="end" x="-6" y="9" transform="translate(0,177.19)" style="font-family: 'Open Sans', verdana, arial, sans-serif; font-size: 18px; fill: rgb(68, 68, 68); fill-opacity: 1; visibility: visible; white-space: pre;">1130</text></g><g class="ytick" data-bb="517"><text text-anchor="end" x="-6" y="9" transform="translate(0,122.6)" style="font-family: 'Open Sans', verdana, arial, sans-serif; font-size: 18px; fill: rgb(68, 68, 68); fill-opacity: 1; visibility: visible; white-space: pre;">1132</text></g><g class="ytick" data-bb="518"><text text-anchor="end" x="-6" y="9" transform="translate(0,68)" style="font-family: 'Open Sans', verdana, arial, sans-serif; font-size: 18px; fill: rgb(68, 68, 68); fill-opacity: 1; visibility: visible; white-space: pre;">1134</text></g><g class="ytick" data-bb="519"><text text-anchor="end" x="-6" y="9" transform="translate(0,13.4)" style="font-family: 'Open Sans', verdana, arial, sans-serif; font-size: 18px; fill: rgb(68, 68, 68); fill-opacity: 1; visibility: visible; white-space: pre;">1136</text></g></g><g class="overaxes"/></g></g><g class="ternarylayer"/><g class="layer-above"><g class="imagelayer"/><g class="shapelayer"/></g><g class="pielayer"/><g class="glimages"/><g class="geoimages"/><text class="js-plot-link-container" y="591" text-anchor="end" x="943" style="font-family: 'Open Sans', Arial, sans-serif; font-size: 12px; fill: rgb(68, 68, 68); pointer-events: all; visibility: visible;"><tspan class="js-link-to-tool"/><tspan class="js-link-spacer"/><tspan class="js-sourcelinks"/></text><defs id="topdefs-d3114f"><clipPath id="legendd3114f"><rect width="136" height="379" x="0" y="0"/></clipPath></defs><g class="infolayer"><g class="g-gtitle"><text class="gtitle" x="475" y="25" text-anchor="middle" style="font-family: 'Open Sans', verdana, arial, sans-serif; font-size: 24px; fill: rgb(68, 68, 68); opacity: 1; font-weight: normal; white-space: pre; visibility: visible;">Parameter Tuning XGBoost</text></g><g class="g-xtitle" data-bb="503"/><g class="g-ytitle" data-bb="511" transform="translate(-15.171875,0)"/><g class="legend" pointer-events="all" transform="translate(802.16, 50)"><rect class="bg" shape-rendering="crispEdges" style="stroke: rgb(68, 68, 68); stroke-opacity: 1; fill: rgb(255, 255, 255); fill-opacity: 1; stroke-width: 0px;" width="136" height="379" x="0" y="0"/><g class="scrollbox" transform="translate(0, 0)" clip-path="url(#legendd3114f)"><g class="groups"><g class="traces" transform="translate(0, 23.400000000000002)" style="opacity: 1;"><g class="legendfill"/><g class="legendlines"><path class="js-line" d="M5,0h30" style="fill: none; stroke: rgb(166, 206, 227); stroke-opacity: 1; stroke-width: 2px;"/></g><g class="legendsymbols" style="opacity: 1;"><g class="legendpoints"><path class="scatterpts" transform="translate(20,0)" d="M3,0A3,3 0 1,1 0,-3A3,3 0 0,1 3,0Z" style="opacity: 1; stroke-width: 0px; fill: rgb(166, 206, 227); fill-opacity: 1;"/></g></g><text class="legendtext user-select-none" x="40" y="-3.380000000000001" style="text-anchor: start; font-family: 'Open Sans', verdana, arial, sans-serif; font-size: 13px; fill: rgb(68, 68, 68); fill-opacity: 1; white-space: pre; visibility: visible;" data-bb="520"><tspan class="line" dy="0em" x="40" y="-3.380000000000001">max_depth=8</tspan><tspan class="line" dy="1.3em" x="40" y="-3.380000000000001">gamma=0.0</tspan></text><rect class="legendtoggle" pointer-events="all" style="cursor: pointer; fill: rgb(0, 0, 0); fill-opacity: 0;" x="0" y="-18.400000000000002" width="176" height="36.800000000000004"/></g><g class="traces" transform="translate(0, 60.2)" style="opacity: 1;"><g class="legendfill"/><g class="legendlines"><path class="js-line" d="M5,0h30" style="fill: none; stroke: rgb(31, 120, 180); stroke-opacity: 1; stroke-width: 2px;"/></g><g class="legendsymbols" style="opacity: 1;"><g class="legendpoints"><path class="scatterpts" transform="translate(20,0)" d="M3,0A3,3 0 1,1 0,-3A3,3 0 0,1 3,0Z" style="opacity: 1; stroke-width: 0px; fill: rgb(31, 120, 180); fill-opacity: 1;"/></g></g><text class="legendtext user-select-none" x="40" y="-3.380000000000001" style="text-anchor: start; font-family: 'Open Sans', verdana, arial, sans-serif; font-size: 13px; fill: rgb(68, 68, 68); fill-opacity: 1; white-space: pre; visibility: visible;" data-bb="521"><tspan class="line" dy="0em" x="40" y="-3.380000000000001">max_depth=8</tspan><tspan class="line" dy="1.3em" x="40" y="-3.380000000000001">gamma=1.0</tspan></text><rect class="legendtoggle" pointer-events="all" style="cursor: pointer; fill: rgb(0, 0, 0); fill-opacity: 0;" x="0" y="-18.400000000000002" width="176" height="36.800000000000004"/></g><g class="traces" transform="translate(0, 97.00000000000001)" style="opacity: 1;"><g class="legendfill"/><g class="legendlines"><path class="js-line" d="M5,0h30" style="fill: none; stroke: rgb(178, 223, 138); stroke-opacity: 1; stroke-width: 2px;"/></g><g class="legendsymbols" style="opacity: 1;"><g class="legendpoints"><path class="scatterpts" transform="translate(20,0)" d="M3,0A3,3 0 1,1 0,-3A3,3 0 0,1 3,0Z" style="opacity: 1; stroke-width: 0px; fill: rgb(178, 223, 138); fill-opacity: 1;"/></g></g><text class="legendtext user-select-none" x="40" y="-3.380000000000001" style="text-anchor: start; font-family: 'Open Sans', verdana, arial, sans-serif; font-size: 13px; fill: rgb(68, 68, 68); fill-opacity: 1; white-space: pre; visibility: visible;" data-bb="522"><tspan class="line" dy="0em" x="40" y="-3.380000000000001">max_depth=9</tspan><tspan class="line" dy="1.3em" x="40" y="-3.380000000000001">gamma=0.0</tspan></text><rect class="legendtoggle" pointer-events="all" style="cursor: pointer; fill: rgb(0, 0, 0); fill-opacity: 0;" x="0" y="-18.400000000000002" width="176" height="36.800000000000004"/></g><g class="traces" transform="translate(0, 133.8)" style="opacity: 1;"><g class="legendfill"/><g class="legendlines"><path class="js-line" d="M5,0h30" style="fill: none; stroke: rgb(51, 160, 44); stroke-opacity: 1; stroke-width: 2px;"/></g><g class="legendsymbols" style="opacity: 1;"><g class="legendpoints"><path class="scatterpts" transform="translate(20,0)" d="M3,0A3,3 0 1,1 0,-3A3,3 0 0,1 3,0Z" style="opacity: 1; stroke-width: 0px; fill: rgb(51, 160, 44); fill-opacity: 1;"/></g></g><text class="legendtext user-select-none" x="40" y="-3.380000000000001" style="text-anchor: start; font-family: 'Open Sans', verdana, arial, sans-serif; font-size: 13px; fill: rgb(68, 68, 68); fill-opacity: 1; white-space: pre; visibility: visible;" data-bb="523"><tspan class="line" dy="0em" x="40" y="-3.380000000000001">max_depth=9</tspan><tspan class="line" dy="1.3em" x="40" y="-3.380000000000001">gamma=1.0</tspan></text><rect class="legendtoggle" pointer-events="all" style="cursor: pointer; fill: rgb(0, 0, 0); fill-opacity: 0;" x="0" y="-18.400000000000002" width="176" height="36.800000000000004"/></g><g class="traces" transform="translate(0, 170.60000000000002)" style="opacity: 1;"><g class="legendfill"/><g class="legendlines"><path class="js-line" d="M5,0h30" style="fill: none; stroke: rgb(251, 154, 153); stroke-opacity: 1; stroke-width: 2px;"/></g><g class="legendsymbols" style="opacity: 1;"><g class="legendpoints"><path class="scatterpts" transform="translate(20,0)" d="M3,0A3,3 0 1,1 0,-3A3,3 0 0,1 3,0Z" style="opacity: 1; stroke-width: 0px; fill: rgb(251, 154, 153); fill-opacity: 1;"/></g></g><text class="legendtext user-select-none" x="40" y="-3.380000000000001" style="text-anchor: start; font-family: 'Open Sans', verdana, arial, sans-serif; font-size: 13px; fill: rgb(68, 68, 68); fill-opacity: 1; white-space: pre; visibility: visible;" data-bb="524"><tspan class="line" dy="0em" x="40" y="-3.380000000000001">max_depth=10</tspan><tspan class="line" dy="1.3em" x="40" y="-3.380000000000001">gamma=0.0</tspan></text><rect class="legendtoggle" pointer-events="all" style="cursor: pointer; fill: rgb(0, 0, 0); fill-opacity: 0;" x="0" y="-18.400000000000002" width="176" height="36.800000000000004"/></g><g class="traces" transform="translate(0, 207.40000000000003)" style="opacity: 1;"><g class="legendfill"/><g class="legendlines"><path class="js-line" d="M5,0h30" style="fill: none; stroke: rgb(227, 26, 28); stroke-opacity: 1; stroke-width: 2px;"/></g><g class="legendsymbols" style="opacity: 1;"><g class="legendpoints"><path class="scatterpts" transform="translate(20,0)" d="M3,0A3,3 0 1,1 0,-3A3,3 0 0,1 3,0Z" style="opacity: 1; stroke-width: 0px; fill: rgb(227, 26, 28); fill-opacity: 1;"/></g></g><text class="legendtext user-select-none" x="40" y="-3.380000000000001" style="text-anchor: start; font-family: 'Open Sans', verdana, arial, sans-serif; font-size: 13px; fill: rgb(68, 68, 68); fill-opacity: 1; white-space: pre; visibility: visible;" data-bb="525"><tspan class="line" dy="0em" x="40" y="-3.380000000000001">max_depth=10</tspan><tspan class="line" dy="1.3em" x="40" y="-3.380000000000001">gamma=1.0</tspan></text><rect class="legendtoggle" pointer-events="all" style="cursor: pointer; fill: rgb(0, 0, 0); fill-opacity: 0;" x="0" y="-18.400000000000002" width="176" height="36.800000000000004"/></g><g class="traces" transform="translate(0, 244.20000000000005)" style="opacity: 1;"><g class="legendfill"/><g class="legendlines"><path class="js-line" d="M5,0h30" style="fill: none; stroke: rgb(253, 191, 111); stroke-opacity: 1; stroke-width: 2px;"/></g><g class="legendsymbols" style="opacity: 1;"><g class="legendpoints"><path class="scatterpts" transform="translate(20,0)" d="M3,0A3,3 0 1,1 0,-3A3,3 0 0,1 3,0Z" style="opacity: 1; stroke-width: 0px; fill: rgb(253, 191, 111); fill-opacity: 1;"/></g></g><text class="legendtext user-select-none" x="40" y="-3.380000000000001" style="text-anchor: start; font-family: 'Open Sans', verdana, arial, sans-serif; font-size: 13px; fill: rgb(68, 68, 68); fill-opacity: 1; white-space: pre; visibility: visible;" data-bb="526"><tspan class="line" dy="0em" x="40" y="-3.380000000000001">max_depth=11</tspan><tspan class="line" dy="1.3em" x="40" y="-3.380000000000001">gamma=0.0</tspan></text><rect class="legendtoggle" pointer-events="all" style="cursor: pointer; fill: rgb(0, 0, 0); fill-opacity: 0;" x="0" y="-18.400000000000002" width="176" height="36.800000000000004"/></g><g class="traces" transform="translate(0, 281)" style="opacity: 1;"><g class="legendfill"/><g class="legendlines"><path class="js-line" d="M5,0h30" style="fill: none; stroke: rgb(255, 127, 0); stroke-opacity: 1; stroke-width: 2px;"/></g><g class="legendsymbols" style="opacity: 1;"><g class="legendpoints"><path class="scatterpts" transform="translate(20,0)" d="M3,0A3,3 0 1,1 0,-3A3,3 0 0,1 3,0Z" style="opacity: 1; stroke-width: 0px; fill: rgb(255, 127, 0); fill-opacity: 1;"/></g></g><text class="legendtext user-select-none" x="40" y="-3.380000000000001" style="text-anchor: start; font-family: 'Open Sans', verdana, arial, sans-serif; font-size: 13px; fill: rgb(68, 68, 68); fill-opacity: 1; white-space: pre; visibility: visible;" data-bb="527"><tspan class="line" dy="0em" x="40" y="-3.380000000000001">max_depth=11</tspan><tspan class="line" dy="1.3em" x="40" y="-3.380000000000001">gamma=1.0</tspan></text><rect class="legendtoggle" pointer-events="all" style="cursor: pointer; fill: rgb(0, 0, 0); fill-opacity: 0;" x="0" y="-18.400000000000002" width="176" height="36.800000000000004"/></g><g class="traces" transform="translate(0, 317.8)" style="opacity: 1;"><g class="legendfill"/><g class="legendlines"><path class="js-line" d="M5,0h30" style="fill: none; stroke: rgb(202, 178, 214); stroke-opacity: 1; stroke-width: 2px;"/></g><g class="legendsymbols" style="opacity: 1;"><g class="legendpoints"><path class="scatterpts" transform="translate(20,0)" d="M3,0A3,3 0 1,1 0,-3A3,3 0 0,1 3,0Z" style="opacity: 1; stroke-width: 0px; fill: rgb(202, 178, 214); fill-opacity: 1;"/></g></g><text class="legendtext user-select-none" x="40" y="-3.380000000000001" style="text-anchor: start; font-family: 'Open Sans', verdana, arial, sans-serif; font-size: 13px; fill: rgb(68, 68, 68); fill-opacity: 1; white-space: pre; visibility: visible;" data-bb="528"><tspan class="line" dy="0em" x="40" y="-3.380000000000001">max_depth=12</tspan><tspan class="line" dy="1.3em" x="40" y="-3.380000000000001">gamma=0.0</tspan></text><rect class="legendtoggle" pointer-events="all" style="cursor: pointer; fill: rgb(0, 0, 0); fill-opacity: 0;" x="0" y="-18.400000000000002" width="176" height="36.800000000000004"/></g><g class="traces" transform="translate(0, 354.6)" style="opacity: 1;"><g class="legendfill"/><g class="legendlines"><path class="js-line" d="M5,0h30" style="fill: none; stroke: rgb(106, 61, 154); stroke-opacity: 1; stroke-width: 2px;"/></g><g class="legendsymbols" style="opacity: 1;"><g class="legendpoints"><path class="scatterpts" transform="translate(20,0)" d="M3,0A3,3 0 1,1 0,-3A3,3 0 0,1 3,0Z" style="opacity: 1; stroke-width: 0px; fill: rgb(106, 61, 154); fill-opacity: 1;"/></g></g><text class="legendtext user-select-none" x="40" y="-3.380000000000001" style="text-anchor: start; font-family: 'Open Sans', verdana, arial, sans-serif; font-size: 13px; fill: rgb(68, 68, 68); fill-opacity: 1; white-space: pre; visibility: visible;" data-bb="529"><tspan class="line" dy="0em" x="40" y="-3.380000000000001">max_depth=12</tspan><tspan class="line" dy="1.3em" x="40" y="-3.380000000000001">gamma=1.0</tspan></text><rect class="legendtoggle" pointer-events="all" x="0" y="-18.400000000000002" width="176" height="36.800000000000004" style="cursor: pointer; fill: rgb(0, 0, 0); fill-opacity: 0;"/></g></g></g><rect class="scrollbar" rx="20" ry="2" width="0" height="0" style="fill: rgb(128, 139, 164); fill-opacity: 1;"/></g></g></svg>