<svg class="main-svg" xmlns="http://www.w3.org/2000/svg" xmlns:xlink="http://www.w3.org/1999/xlink" width="700" height="500"><rect x="0" y="0" width="700" height="500" style="fill: rgb(255, 255, 255); fill-opacity: 1;"/><defs id="defs-0a4025"><g class="clips"><clipPath class="axesclip" id="clip0a4025x"><rect x="80" y="0" width="505" height="500"/></clipPath><clipPath class="axesclip" id="clip0a4025y"><rect x="0" y="100" width="700" height="320"/></clipPath><clipPath class="axesclip" id="clip0a4025xy"><rect x="80" y="100" width="505" height="320"/></clipPath><clipPath class="plotclip" id="clip0a4025xyplot"><rect width="505" height="320"/></clipPath></g></defs><g class="layer-below"><g class="imagelayer"/><g class="shapelayer"/></g><g class="cartesianlayer"><g class="subplot xy"><rect class="bg" x="80" y="100" width="505" height="320" style="stroke-width: 0px; fill: rgb(255, 255, 255); fill-opacity: 1;"/><g class="layer-subplot"><g class="shapelayer"/><g class="imagelayer"/></g><g class="gridlayer" transform="translate(80,100)"><path class="xgrid crisp" d="M0,0v320" transform="translate(133.1,0)" style="stroke: rgb(238, 238, 238); stroke-opacity: 1; stroke-width: 1px;"/><path class="xgrid crisp" d="M0,0v320" transform="translate(266.21,0)" style="stroke: rgb(238, 238, 238); stroke-opacity: 1; stroke-width: 1px;"/><path class="xgrid crisp" d="M0,0v320" transform="translate(399.31,0)" style="stroke: rgb(238, 238, 238); stroke-opacity: 1; stroke-width: 1px;"/><path class="ygrid crisp" d="M0,0h505" transform="translate(0,310.48)" style="stroke: rgb(238, 238, 238); stroke-opacity: 1; stroke-width: 1px;"/><path class="ygrid crisp" d="M0,0h505" transform="translate(0,245.39)" style="stroke: rgb(238, 238, 238); stroke-opacity: 1; stroke-width: 1px;"/><path class="ygrid crisp" d="M0,0h505" transform="translate(0,180.31)" style="stroke: rgb(238, 238, 238); stroke-opacity: 1; stroke-width: 1px;"/><path class="ygrid crisp" d="M0,0h505" transform="translate(0,115.22)" style="stroke: rgb(238, 238, 238); stroke-opacity: 1; stroke-width: 1px;"/><path class="ygrid crisp" d="M0,0h505" transform="translate(0,50.13)" style="stroke: rgb(238, 238, 238); stroke-opacity: 1; stroke-width: 1px;"/></g><g class="overgrid"/><g class="zerolinelayer" transform="translate(80,100)"><path class="xzl zl crisp" d="M0,0v320" transform="translate(0,0)" style="stroke: rgb(68, 68, 68); stroke-opacity: 1; stroke-width: 1px;"/></g><g class="overzero"/><g class="plot" transform="translate(80, 100)" clip-path="url(#clip0a4025xyplot)"><g class="imagelayer"/><g class="maplayer"/><g class="barlayer"/><g class="boxlayer"/><g class="scatterlayer"><g class="trace scatter traceac67ac" style="stroke-miterlimit: 2; opacity: 0.7;"><path class="js-line" d="M0,16L0.8,20.02L0.93,21.26L2.8,51.92L2.93,54.68L9.58,176L9.72,177.77L14.11,223.01L14.24,224.05L19.3,253.78L19.43,254.35L24.36,269.95L24.49,270.25L29.02,278.25L29.15,278.42L34.34,283.62L34.47,283.72L40.6,287.03L40.73,287.08L49.52,289.61L49.65,289.63L62.29,291.53L62.43,291.54L127.38,295.94L127.51,295.94L263.81,300.06L263.95,300.06L317.19,301.11L317.32,301.11L374.82,302.11L374.96,302.12L441.51,303.12L441.64,303.13L505,304" style="vector-effect: non-scaling-stroke; fill: none; stroke: rgb(22, 96, 167); stroke-opacity: 1; stroke-width: 4px; opacity: 1;"/><g class="points"/></g><g class="trace scatter tracee25165" style="stroke-miterlimit: 2; opacity: 0.7;"><path class="js-line" d="M0,16L0.8,20.02L0.93,21.26L2.8,51.91L2.93,54.68L9.58,175.87L9.72,177.63L14.11,222.67L14.24,223.7L19.17,252.59L19.3,253.14L23.56,267.13L23.69,267.45L28.88,276.96L29.02,277.12L34.07,282.08L34.21,282.18L40.6,285.43L40.73,285.48L49.52,287.68L49.65,287.7L69.21,289.73L69.35,289.73L102.22,291.28L102.36,291.28L161.32,292.55L161.46,292.55L199.39,293.01L199.52,293.01L399.45,294.01L399.58,294.02L505,294.2" style="vector-effect: non-scaling-stroke; fill: none; stroke: rgb(205, 12, 24); stroke-opacity: 1; stroke-width: 4px; opacity: 1;"/><g class="points"/></g></g></g><g class="overplot"/><path class="xlines crisp" transform="translate(80,100)" d="M-1,320.5h507" style="fill: none; stroke-width: 1px; stroke: rgb(0, 0, 0); stroke-opacity: 0;"/><path class="ylines crisp" transform="translate(80,100)" d="M-0.5,-1v321" stroke-width="1px" style="fill: none; stroke: rgb(0, 0, 0); stroke-opacity: 0;"/><g class="overlines"/><g class="xaxislayer" transform="translate(80,100)"><g class="xtick" data-bb="1796"><text text-anchor="middle" x="0" y="334" transform="translate(0,0)" style="font-family: 'Open Sans', verdana, arial, sans-serif; font-size: 12px; fill: rgb(68, 68, 68); fill-opacity: 1; visibility: visible; white-space: pre;" data-bb="1791">0</text></g><g class="xtick" data-bb="1797"><text text-anchor="middle" x="0" y="334" transform="translate(133.1,0)" style="font-family: 'Open Sans', verdana, arial, sans-serif; font-size: 12px; fill: rgb(68, 68, 68); fill-opacity: 1; visibility: visible; white-space: pre;" data-bb="1792">1000</text></g><g class="xtick" data-bb="1798"><text text-anchor="middle" x="0" y="334" transform="translate(266.21,0)" style="font-family: 'Open Sans', verdana, arial, sans-serif; font-size: 12px; fill: rgb(68, 68, 68); fill-opacity: 1; visibility: visible; white-space: pre;" data-bb="1793">2000</text></g><g class="xtick" data-bb="1799"><text text-anchor="middle" x="0" y="334" transform="translate(399.31,0)" style="font-family: 'Open Sans', verdana, arial, sans-serif; font-size: 12px; fill: rgb(68, 68, 68); fill-opacity: 1; visibility: visible; white-space: pre;" data-bb="1794">3000</text></g></g><g class="yaxislayer" transform="translate(80,100)"><g class="ytick" data-bb="1801"><text text-anchor="end" x="-2" y="6" transform="translate(0,310.48)" style="font-family: 'Open Sans', verdana, arial, sans-serif; font-size: 12px; fill: rgb(68, 68, 68); fill-opacity: 1; visibility: visible; white-space: pre;">1000</text></g><g class="ytick" data-bb="1802"><text text-anchor="end" x="-2" y="6" transform="translate(0,245.39)" style="font-family: 'Open Sans', verdana, arial, sans-serif; font-size: 12px; fill: rgb(68, 68, 68); fill-opacity: 1; visibility: visible; white-space: pre;">1500</text></g><g class="ytick" data-bb="1803"><text text-anchor="end" x="-2" y="6" transform="translate(0,180.31)" style="font-family: 'Open Sans', verdana, arial, sans-serif; font-size: 12px; fill: rgb(68, 68, 68); fill-opacity: 1; visibility: visible; white-space: pre;">2000</text></g><g class="ytick" data-bb="1804"><text text-anchor="end" x="-2" y="6" transform="translate(0,115.22)" style="font-family: 'Open Sans', verdana, arial, sans-serif; font-size: 12px; fill: rgb(68, 68, 68); fill-opacity: 1; visibility: visible; white-space: pre;">2500</text></g><g class="ytick" data-bb="1805"><text text-anchor="end" x="-2" y="6" transform="translate(0,50.13)" style="font-family: 'Open Sans', verdana, arial, sans-serif; font-size: 12px; fill: rgb(68, 68, 68); fill-opacity: 1; visibility: visible; white-space: pre;">3000</text></g></g><g class="overaxes"/></g></g><g class="ternarylayer"/><g class="layer-above"><g class="imagelayer"/><g class="shapelayer"/></g><g class="pielayer"/><g class="glimages"/><g class="geoimages"/><text class="js-plot-link-container" y="491" text-anchor="end" x="693" style="font-family: 'Open Sans', Arial, sans-serif; font-size: 12px; fill: rgb(68, 68, 68); pointer-events: all; visibility: visible;"><tspan class="js-link-to-tool"/><tspan class="js-link-spacer"/><tspan class="js-sourcelinks"/></text><defs id="topdefs-0a4025"><clipPath id="legend0a4025"><rect width="93" height="48" x="0" y="0"/></clipPath></defs><g class="infolayer"><g class="g-gtitle"><text class="gtitle" x="350" y="50" text-anchor="middle" style="font-family: 'Open Sans', verdana, arial, sans-serif; font-size: 17px; fill: rgb(68, 68, 68); opacity: 1; font-weight: normal; white-space: pre; visibility: visible;">Cross-Validation Scores</text></g><g class="g-xtitle" data-bb="1795"><text class="xtitle" x="332.5" y="472" text-anchor="middle" style="font-family: 'Open Sans', verdana, arial, sans-serif; font-size: 14px; fill: rgb(68, 68, 68); opacity: 1; font-weight: normal; white-space: pre; visibility: visible;">Number of Trees</text></g><g class="g-ytitle" data-bb="1800"><text class="ytitle" transform="rotate(-90,42,260) translate(0, 0)" x="42" y="260" text-anchor="middle" style="font-family: 'Open Sans', verdana, arial, sans-serif; font-size: 14px; fill: rgb(68, 68, 68); opacity: 1; font-weight: normal; white-space: pre; visibility: visible;">Mean Absolute Error</text></g><g class="legend" pointer-events="all" transform="translate(595.1, 100)"><rect class="bg" shape-rendering="crispEdges" style="stroke: rgb(68, 68, 68); stroke-opacity: 1; fill: rgb(255, 255, 255); fill-opacity: 1; stroke-width: 0px;" width="93" height="48" x="0" y="0"/><g class="scrollbox" transform="translate(0, 0)" clip-path="url(#legend0a4025)"><g class="groups"><g class="traces" transform="translate(0, 14.5)" style="opacity: 1;"><g class="legendfill"/><g class="legendlines"><path class="js-line" d="M5,0h30" style="fill: none; stroke: rgb(22, 96, 167); stroke-opacity: 1; stroke-width: 4px;"/></g><g class="legendsymbols" style="opacity: 0.7;"><g class="legendpoints"/></g><text class="legendtext user-select-none" x="40" y="4.680000000000001" style="text-anchor: start; font-family: 'Open Sans', verdana, arial, sans-serif; font-size: 12px; fill: rgb(68, 68, 68); fill-opacity: 1; white-space: pre; visibility: visible;" data-bb="1806">CV-Train</text><rect class="legendtoggle" pointer-events="all" style="cursor: pointer; fill: rgb(0, 0, 0); fill-opacity: 0;" x="0" y="-9.5" width="133" height="19"/></g><g class="traces" transform="translate(0, 33.5)" style="opacity: 1;"><g class="legendfill"/><g class="legendlines"><path class="js-line" d="M5,0h30" style="fill: none; stroke: rgb(205, 12, 24); stroke-opacity: 1; stroke-width: 4px;"/></g><g class="legendsymbols" style="opacity: 0.7;"><g class="legendpoints"/></g><text class="legendtext user-select-none" x="40" y="4.680000000000001" style="text-anchor: start; font-family: 'Open Sans', verdana, arial, sans-serif; font-size: 12px; fill: rgb(68, 68, 68); fill-opacity: 1; white-space: pre; visibility: visible;" data-bb="1807">CV-Test</text><rect class="legendtoggle" pointer-events="all" x="0" y="-9.5" width="133" height="19" style="cursor: pointer; fill: rgb(0, 0, 0); fill-opacity: 0;"/></g></g></g><rect class="scrollbar" rx="20" ry="2" width="0" height="0" style="fill: rgb(128, 139, 164); fill-opacity: 1;"/></g></g></svg>