<svg class="main-svg" xmlns="http://www.w3.org/2000/svg" xmlns:xlink="http://www.w3.org/1999/xlink" width="700" height="500"><rect x="0" y="0" width="700" height="500" style="fill: rgb(255, 255, 255); fill-opacity: 1;"/><defs id="defs-eeb1f8"><g class="clips"><clipPath class="axesclip" id="clipeeb1f8x"><rect x="80" y="0" width="540" height="500"/></clipPath><clipPath class="axesclip" id="clipeeb1f8y"><rect x="0" y="50" width="700" height="350"/></clipPath><clipPath class="axesclip" id="clipeeb1f8xy"><rect x="80" y="50" width="540" height="350"/></clipPath><clipPath class="plotclip" id="clipeeb1f8xyplot"><rect width="540" height="350"/></clipPath></g></defs><g class="layer-below"><g class="imagelayer"/><g class="shapelayer"/></g><g class="cartesianlayer"><g class="subplot xy"><rect class="bg" x="76" y="46" width="548" height="358" style="stroke-width: 0px; fill: rgb(255, 255, 255); fill-opacity: 1;"/><g class="layer-subplot"><g class="shapelayer"/><g class="imagelayer"/></g><g class="gridlayer" transform="translate(80,50)"><path class="ygrid crisp" d="M0,0h540" transform="translate(0,289.79)" style="stroke: rgb(238, 238, 238); stroke-opacity: 1; stroke-width: 1px;"/><path class="ygrid crisp" d="M0,0h540" transform="translate(0,229.57)" style="stroke: rgb(238, 238, 238); stroke-opacity: 1; stroke-width: 1px;"/><path class="ygrid crisp" d="M0,0h540" transform="translate(0,169.36)" style="stroke: rgb(238, 238, 238); stroke-opacity: 1; stroke-width: 1px;"/><path class="ygrid crisp" d="M0,0h540" transform="translate(0,109.15)" style="stroke: rgb(238, 238, 238); stroke-opacity: 1; stroke-width: 1px;"/><path class="ygrid crisp" d="M0,0h540" transform="translate(0,48.93)" style="stroke: rgb(238, 238, 238); stroke-opacity: 1; stroke-width: 1px;"/></g><g class="overgrid"/><g class="zerolinelayer" transform="translate(80,50)"><path class="yzl zl crisp" d="M0,0h540" transform="translate(0,350)" style="stroke: rgb(68, 68, 68); stroke-opacity: 1; stroke-width: 1px;"/></g><g class="overzero"/><g class="plot" transform="translate(80, 50)" clip-path="url(#clipeeb1f8xyplot)"><g class="imagelayer"/><g class="maplayer"/><g class="barlayer"><g class="trace bars" style="opacity: 1;"><g class="points"><g class="point"><path d="M0.11,350V145.29H4.32V350Z" style="stroke-width: 0px; fill: rgb(0, 64, 128); fill-opacity: 1;"/></g><g class="point"><path d="M4.54,350V17.5H8.74V350Z" style="stroke-width: 0px; fill: rgb(0, 64, 128); fill-opacity: 1;"/></g><g class="point"><path d="M8.96,350V147.16H13.17V350Z" style="stroke-width: 0px; fill: rgb(0, 64, 128); fill-opacity: 1;"/></g><g class="point"><path d="M13.39,350V225.36H17.59V350Z" style="stroke-width: 0px; fill: rgb(0, 64, 128); fill-opacity: 1;"/></g><g class="point"><path d="M17.82,350V266.84H22.02V350Z" style="stroke-width: 0px; fill: rgb(0, 64, 128); fill-opacity: 1;"/></g><g class="point"><path d="M22.24,350V294.8H26.45V350Z" style="stroke-width: 0px; fill: rgb(0, 64, 128); fill-opacity: 1;"/></g><g class="point"><path d="M26.67,350V311.3H30.87V350Z" style="stroke-width: 0px; fill: rgb(0, 64, 128); fill-opacity: 1;"/></g><g class="point"><path d="M31.09,350V324.19H35.3V350Z" style="stroke-width: 0px; fill: rgb(0, 64, 128); fill-opacity: 1;"/></g><g class="point"><path d="M35.52,350V332.38H39.73V350Z" style="stroke-width: 0px; fill: rgb(0, 64, 128); fill-opacity: 1;"/></g><g class="point"><path d="M39.95,350V336.64H44.15V350Z" style="stroke-width: 0px; fill: rgb(0, 64, 128); fill-opacity: 1;"/></g><g class="point"><path d="M44.37,350V340.93H48.58V350Z" style="stroke-width: 0px; fill: rgb(0, 64, 128); fill-opacity: 1;"/></g><g class="point"><path d="M48.8,350V343.29H53V350Z" style="stroke-width: 0px; fill: rgb(0, 64, 128); fill-opacity: 1;"/></g><g class="point"><path d="M53.23,350V345.13H57.43V350Z" style="stroke-width: 0px; fill: rgb(0, 64, 128); fill-opacity: 1;"/></g><g class="point"><path d="M57.65,350V346.52H61.86V350Z" style="stroke-width: 0px; fill: rgb(0, 64, 128); fill-opacity: 1;"/></g><g class="point"><path d="M62.08,350V347.22H66.28V350Z" style="stroke-width: 0px; fill: rgb(0, 64, 128); fill-opacity: 1;"/></g><g class="point"><path d="M66.5,350V348.2H70.71V350Z" style="stroke-width: 0px; fill: rgb(0, 64, 128); fill-opacity: 1;"/></g><g class="point"><path d="M70.93,350V348.42H75.14V350Z" style="stroke-width: 0px; fill: rgb(0, 64, 128); fill-opacity: 1;"/></g><g class="point"><path d="M75.36,350V348.98H79.56V350Z" style="stroke-width: 0px; fill: rgb(0, 64, 128); fill-opacity: 1;"/></g><g class="point"><path d="M79.78,350V349.18H83.99V350Z" style="stroke-width: 0px; fill: rgb(0, 64, 128); fill-opacity: 1;"/></g><g class="point"><path d="M84.21,350V349.36H88.41V350Z" style="stroke-width: 0px; fill: rgb(0, 64, 128); fill-opacity: 1;"/></g><g class="point"><path d="M88.64,350V349.5H92.84V350Z" style="stroke-width: 0px; fill: rgb(0, 64, 128); fill-opacity: 1;"/></g><g class="point"><path d="M93.06,350V349.53H97.27V350Z" style="stroke-width: 0px; fill: rgb(0, 64, 128); fill-opacity: 1;"/></g><g class="point"><path d="M97.49,350V349.7H101.69V350Z" style="stroke-width: 0px; fill: rgb(0, 64, 128); fill-opacity: 1;"/></g><g class="point"><path d="M101.91,350V349.78H106.12V350Z" style="stroke-width: 0px; fill: rgb(0, 64, 128); fill-opacity: 1;"/></g><g class="point"><path d="M106.34,350V349.81H110.55V350Z" style="stroke-width: 0px; fill: rgb(0, 64, 128); fill-opacity: 1;"/></g><g class="point"><path d="M110.77,350V349.8H114.97V350Z" style="stroke-width: 0px; fill: rgb(0, 64, 128); fill-opacity: 1;"/></g><g class="point"><path d="M115.19,350V349.85H119.4V350Z" style="stroke-width: 0px; fill: rgb(0, 64, 128); fill-opacity: 1;"/></g><g class="point"><path d="M119.62,350V349.91H123.82V350Z" style="stroke-width: 0px; fill: rgb(0, 64, 128); fill-opacity: 1;"/></g><g class="point"><path d="M124.05,350V349.93H128.25V350Z" style="stroke-width: 0px; fill: rgb(0, 64, 128); fill-opacity: 1;"/></g><g class="point"><path d="M128.47,350V349.93H132.68V350Z" style="stroke-width: 0px; fill: rgb(0, 64, 128); fill-opacity: 1;"/></g><g class="point"><path d="M132.9,350V349.93H137.1V350Z" style="stroke-width: 0px; fill: rgb(0, 64, 128); fill-opacity: 1;"/></g><g class="point"><path d="M137.32,350V349.97H141.53V350Z" style="stroke-width: 0px; fill: rgb(0, 64, 128); fill-opacity: 1;"/></g><g class="point"><path d="M141.75,350V349.98H145.95V350Z" style="stroke-width: 0px; fill: rgb(0, 64, 128); fill-opacity: 1;"/></g><g class="point"><path d="M146.18,350V349.97H150.38V350Z" style="stroke-width: 0px; fill: rgb(0, 64, 128); fill-opacity: 1;"/></g><g class="point"><path d="M150.6,350V349.97H154.81V350Z" style="stroke-width: 0px; fill: rgb(0, 64, 128); fill-opacity: 1;"/></g><g class="point"><path d="M155.03,350V349.99H159.23V350Z" style="stroke-width: 0px; fill: rgb(0, 64, 128); fill-opacity: 1;"/></g><g class="point"><path d="M159.45,350V349.98H163.66V350Z" style="stroke-width: 0px; fill: rgb(0, 64, 128); fill-opacity: 1;"/></g><g class="point"><path d="M163.88,350V349.97H168.09V350Z" style="stroke-width: 0px; fill: rgb(0, 64, 128); fill-opacity: 1;"/></g><g class="point"><path d="M168.31,350V349.99H172.51V350Z" style="stroke-width: 0px; fill: rgb(0, 64, 128); fill-opacity: 1;"/></g><g class="point"><path d="M172.73,350V349.99H176.94V350Z" style="stroke-width: 0px; fill: rgb(0, 64, 128); fill-opacity: 1;"/></g><g class="point"><path d="M177.16,350V349.99H181.36V350Z" style="stroke-width: 0px; fill: rgb(0, 64, 128); fill-opacity: 1;"/></g><g class="point"><path d="M181.59,350V349.99H185.79V350Z" style="stroke-width: 0px; fill: rgb(0, 64, 128); fill-opacity: 1;"/></g><g class="point"><path d="M186.01,350V349.99H190.22V350Z" style="stroke-width: 0px; fill: rgb(0, 64, 128); fill-opacity: 1;"/></g><g class="point"><path d="M190.44,350V349.99H194.64V350Z" style="stroke-width: 0px; fill: rgb(0, 64, 128); fill-opacity: 1;"/></g><g class="point"><path d="M194.86,350V349.99H199.07V350Z" style="stroke-width: 0px; fill: rgb(0, 64, 128); fill-opacity: 1;"/></g><g class="point"><path d="M199.29,350V349.99H203.5V350Z" style="stroke-width: 0px; fill: rgb(0, 64, 128); fill-opacity: 1;"/></g><g class="point"><path d="M217,350V349.99H221.2V350Z" style="stroke-width: 0px; fill: rgb(0, 64, 128); fill-opacity: 1;"/></g><g class="point"><path d="M225.85,350V349.99H230.05V350Z" style="stroke-width: 0px; fill: rgb(0, 64, 128); fill-opacity: 1;"/></g><g class="point"><path d="M239.13,350V349.99H243.33V350Z" style="stroke-width: 0px; fill: rgb(0, 64, 128); fill-opacity: 1;"/></g><g class="point"><path d="M252.41,350V349.99H256.61V350Z" style="stroke-width: 0px; fill: rgb(0, 64, 128); fill-opacity: 1;"/></g><g class="point"><path d="M261.26,350V349.99H265.46V350Z" style="stroke-width: 0px; fill: rgb(0, 64, 128); fill-opacity: 1;"/></g><g class="point"><path d="M296.67,350V349.99H300.87V350Z" style="stroke-width: 0px; fill: rgb(0, 64, 128); fill-opacity: 1;"/></g><g class="point"><path d="M349.78,350V349.99H353.99V350Z" style="stroke-width: 0px; fill: rgb(0, 64, 128); fill-opacity: 1;"/></g><g class="point"><path d="M376.34,350V349.99H380.55V350Z" style="stroke-width: 0px; fill: rgb(0, 64, 128); fill-opacity: 1;"/></g><g class="point"><path d="M469.29,350V349.99H473.5V350Z" style="stroke-width: 0px; fill: rgb(0, 64, 128); fill-opacity: 1;"/></g><g class="point"><path d="M535.68,350V349.99H539.89V350Z" style="stroke-width: 0px; fill: rgb(0, 64, 128); fill-opacity: 1;"/></g></g></g></g><g class="boxlayer"/><g class="scatterlayer"/></g><g class="overplot"/><path class="xlines crisp" transform="translate(80,50)" d="M-5,354.5h550" style="fill: none; stroke-width: 1px; stroke: rgb(0, 0, 0); stroke-opacity: 0;"/><path class="ylines crisp" transform="translate(80,50)" d="M-4.5,-5v359" stroke-width="1px" style="fill: none; stroke: rgb(0, 0, 0); stroke-opacity: 0;"/><g class="overlines"/><g class="xaxislayer" transform="translate(80,50)"><g class="xtick" data-bb="2138"><text text-anchor="middle" x="0" y="374" transform="translate(0,0)" style="font-family: Arial, sans-serif; font-size: 18px; fill: rgb(68, 68, 68); fill-opacity: 1; visibility: visible; white-space: pre;" data-bb="2130">0</text></g><g class="xtick" data-bb="2139"><text text-anchor="middle" x="0" y="374" transform="translate(88.52,0)" style="font-family: Arial, sans-serif; font-size: 18px; fill: rgb(68, 68, 68); fill-opacity: 1; visibility: visible; white-space: pre;" data-bb="2131">20k</text></g><g class="xtick" data-bb="2140"><text text-anchor="middle" x="0" y="374" transform="translate(177.05,0)" style="font-family: Arial, sans-serif; font-size: 18px; fill: rgb(68, 68, 68); fill-opacity: 1; visibility: visible; white-space: pre;" data-bb="2132">40k</text></g><g class="xtick" data-bb="2141"><text text-anchor="middle" x="0" y="374" transform="translate(265.57,0)" style="font-family: Arial, sans-serif; font-size: 18px; fill: rgb(68, 68, 68); fill-opacity: 1; visibility: visible; white-space: pre;" data-bb="2133">60k</text></g><g class="xtick" data-bb="2142"><text text-anchor="middle" x="0" y="374" transform="translate(354.1,0)" style="font-family: Arial, sans-serif; font-size: 18px; fill: rgb(68, 68, 68); fill-opacity: 1; visibility: visible; white-space: pre;" data-bb="2134">80k</text></g><g class="xtick" data-bb="2143"><text text-anchor="middle" x="0" y="374" transform="translate(442.62,0)" style="font-family: Arial, sans-serif; font-size: 18px; fill: rgb(68, 68, 68); fill-opacity: 1; visibility: visible; white-space: pre;" data-bb="2135">100k</text></g><g class="xtick" data-bb="2144"><text text-anchor="middle" x="0" y="374" transform="translate(531.15,0)" style="font-family: Arial, sans-serif; font-size: 18px; fill: rgb(68, 68, 68); fill-opacity: 1; visibility: visible; white-space: pre;" data-bb="2136">120k</text></g></g><g class="yaxislayer" transform="translate(80,50)"><g class="ytick" data-bb="2146"><text text-anchor="end" x="-6" y="9" transform="translate(0,350)" style="font-family: Arial, sans-serif; font-size: 18px; fill: rgb(68, 68, 68); fill-opacity: 1; visibility: visible; white-space: pre;">0</text></g><g class="ytick" data-bb="2147"><text text-anchor="end" x="-6" y="9" transform="translate(0,289.79)" style="font-family: Arial, sans-serif; font-size: 18px; fill: rgb(68, 68, 68); fill-opacity: 1; visibility: visible; white-space: pre;">10k</text></g><g class="ytick" data-bb="2148"><text text-anchor="end" x="-6" y="9" transform="translate(0,229.57)" style="font-family: Arial, sans-serif; font-size: 18px; fill: rgb(68, 68, 68); fill-opacity: 1; visibility: visible; white-space: pre;">20k</text></g><g class="ytick" data-bb="2149"><text text-anchor="end" x="-6" y="9" transform="translate(0,169.36)" style="font-family: Arial, sans-serif; font-size: 18px; fill: rgb(68, 68, 68); fill-opacity: 1; visibility: visible; white-space: pre;">30k</text></g><g class="ytick" data-bb="2150"><text text-anchor="end" x="-6" y="9" transform="translate(0,109.15)" style="font-family: Arial, sans-serif; font-size: 18px; fill: rgb(68, 68, 68); fill-opacity: 1; visibility: visible; white-space: pre;">40k</text></g><g class="ytick" data-bb="2151"><text text-anchor="end" x="-6" y="9" transform="translate(0,48.93)" style="font-family: Arial, sans-serif; font-size: 18px; fill: rgb(68, 68, 68); fill-opacity: 1; visibility: visible; white-space: pre;">50k</text></g></g><g class="overaxes"/></g></g><g class="ternarylayer"/><g class="layer-above"><g class="imagelayer"/><g class="shapelayer"/></g><g class="pielayer"/><g class="glimages"/><g class="geoimages"/><text class="js-plot-link-container" y="491" text-anchor="end" x="693" style="font-family: 'Open Sans', Arial, sans-serif; font-size: 12px; fill: rgb(68, 68, 68); pointer-events: all; visibility: visible;"><tspan class="js-link-to-tool"/><tspan class="js-link-spacer"/><tspan class="js-sourcelinks"/></text><g class="infolayer"><g class="g-gtitle"><text class="gtitle" x="350" y="25" text-anchor="middle" style="font-family: 'Open Sans', verdana, arial, sans-serif; font-size: 24px; fill: rgb(68, 68, 68); opacity: 1; font-weight: normal; white-space: pre; visibility: visible;">Target Distribution</text></g><g class="g-xtitle" data-bb="2137"><text class="xtitle" x="350" y="476" text-anchor="middle" style="font-family: 'Open Sans', verdana, arial, sans-serif; font-size: 22px; fill: rgb(68, 68, 68); opacity: 1; font-weight: normal; white-space: pre; visibility: visible;">Target (Claims Severity)</text></g><g class="g-ytitle" data-bb="2145"><text class="ytitle" transform="rotate(-90,26,225) translate(0, 0)" x="26" y="225" text-anchor="middle" style="font-family: 'Open Sans', verdana, arial, sans-serif; font-size: 22px; fill: rgb(68, 68, 68); opacity: 1; font-weight: normal; white-space: pre; visibility: visible;">Number of Counts</text></g></g></svg>