<svg class="main-svg" xmlns="http://www.w3.org/2000/svg" xmlns:xlink="http://www.w3.org/1999/xlink" width="700" height="500"><rect x="0" y="0" width="700" height="500" style="fill: rgb(255, 255, 255); fill-opacity: 1;"/><defs id="defs-1ee9b4"><g class="clips"><clipPath class="axesclip" id="clip1ee9b4x"><rect x="80" y="0" width="540" height="500"/></clipPath><clipPath class="axesclip" id="clip1ee9b4y"><rect x="0" y="10" width="700" height="390"/></clipPath><clipPath class="axesclip" id="clip1ee9b4xy"><rect x="80" y="10" width="540" height="390"/></clipPath><clipPath class="plotclip" id="clip1ee9b4xyplot"><rect width="540" height="390"/></clipPath></g></defs><g class="layer-below"><g class="imagelayer"/><g class="shapelayer"/></g><g class="cartesianlayer"><g class="subplot xy"><rect class="bg" x="76" y="6" width="548" height="398" style="stroke-width: 0px; fill: rgb(255, 255, 255); fill-opacity: 1;"/><g class="layer-subplot"><g class="shapelayer"/><g class="imagelayer"/></g><g class="gridlayer" transform="translate(80,10)"><path class="ygrid crisp" d="M0,0h540" transform="translate(0,322.9)" style="stroke: rgb(238, 238, 238); stroke-opacity: 1; stroke-width: 1px;"/><path class="ygrid crisp" d="M0,0h540" transform="translate(0,255.81)" style="stroke: rgb(238, 238, 238); stroke-opacity: 1; stroke-width: 1px;"/><path class="ygrid crisp" d="M0,0h540" transform="translate(0,188.71)" style="stroke: rgb(238, 238, 238); stroke-opacity: 1; stroke-width: 1px;"/><path class="ygrid crisp" d="M0,0h540" transform="translate(0,121.62)" style="stroke: rgb(238, 238, 238); stroke-opacity: 1; stroke-width: 1px;"/><path class="ygrid crisp" d="M0,0h540" transform="translate(0,54.52)" style="stroke: rgb(238, 238, 238); stroke-opacity: 1; stroke-width: 1px;"/></g><g class="overgrid"/><g class="zerolinelayer" transform="translate(80,10)"><path class="yzl zl crisp" d="M0,0h540" transform="translate(0,390)" style="stroke: rgb(68, 68, 68); stroke-opacity: 1; stroke-width: 1px;"/></g><g class="overzero"/><g class="plot" transform="translate(80, 10)" clip-path="url(#clip1ee9b4xyplot)"><g class="imagelayer"/><g class="maplayer"/><g class="barlayer"><g class="trace bars" style="opacity: 1;"><g class="points"><g class="point"><path d="M0.07,390V161.9H4.36V390Z" style="stroke-width: 0px; fill: rgb(0, 64, 128); fill-opacity: 1;"/></g><g class="point"><path d="M4.49,390V19.5H8.79V390Z" style="stroke-width: 0px; fill: rgb(0, 64, 128); fill-opacity: 1;"/></g><g class="point"><path d="M8.92,390V163.98H13.21V390Z" style="stroke-width: 0px; fill: rgb(0, 64, 128); fill-opacity: 1;"/></g><g class="point"><path d="M13.35,390V251.12H17.64V390Z" style="stroke-width: 0px; fill: rgb(0, 64, 128); fill-opacity: 1;"/></g><g class="point"><path d="M17.77,390V297.34H22.06V390Z" style="stroke-width: 0px; fill: rgb(0, 64, 128); fill-opacity: 1;"/></g><g class="point"><path d="M22.2,390V328.49H26.49V390Z" style="stroke-width: 0px; fill: rgb(0, 64, 128); fill-opacity: 1;"/></g><g class="point"><path d="M26.62,390V346.88H30.92V390Z" style="stroke-width: 0px; fill: rgb(0, 64, 128); fill-opacity: 1;"/></g><g class="point"><path d="M31.05,390V361.24H35.34V390Z" style="stroke-width: 0px; fill: rgb(0, 64, 128); fill-opacity: 1;"/></g><g class="point"><path d="M35.48,390V370.37H39.77V390Z" style="stroke-width: 0px; fill: rgb(0, 64, 128); fill-opacity: 1;"/></g><g class="point"><path d="M39.9,390V375.12H44.2V390Z" style="stroke-width: 0px; fill: rgb(0, 64, 128); fill-opacity: 1;"/></g><g class="point"><path d="M44.33,390V379.89H48.62V390Z" style="stroke-width: 0px; fill: rgb(0, 64, 128); fill-opacity: 1;"/></g><g class="point"><path d="M48.75,390V382.53H53.05V390Z" style="stroke-width: 0px; fill: rgb(0, 64, 128); fill-opacity: 1;"/></g><g class="point"><path d="M53.18,390V384.58H57.47V390Z" style="stroke-width: 0px; fill: rgb(0, 64, 128); fill-opacity: 1;"/></g><g class="point"><path d="M57.61,390V386.12H61.9V390Z" style="stroke-width: 0px; fill: rgb(0, 64, 128); fill-opacity: 1;"/></g><g class="point"><path d="M62.03,390V386.91H66.33V390Z" style="stroke-width: 0px; fill: rgb(0, 64, 128); fill-opacity: 1;"/></g><g class="point"><path d="M66.46,390V387.99H70.75V390Z" style="stroke-width: 0px; fill: rgb(0, 64, 128); fill-opacity: 1;"/></g><g class="point"><path d="M70.89,390V388.24H75.18V390Z" style="stroke-width: 0px; fill: rgb(0, 64, 128); fill-opacity: 1;"/></g><g class="point"><path d="M75.31,390V388.86H79.61V390Z" style="stroke-width: 0px; fill: rgb(0, 64, 128); fill-opacity: 1;"/></g><g class="point"><path d="M79.74,390V389.09H84.03V390Z" style="stroke-width: 0px; fill: rgb(0, 64, 128); fill-opacity: 1;"/></g><g class="point"><path d="M84.16,390V389.28H88.46V390Z" style="stroke-width: 0px; fill: rgb(0, 64, 128); fill-opacity: 1;"/></g><g class="point"><path d="M88.59,390V389.44H92.88V390Z" style="stroke-width: 0px; fill: rgb(0, 64, 128); fill-opacity: 1;"/></g><g class="point"><path d="M93.02,390V389.48H97.31V390Z" style="stroke-width: 0px; fill: rgb(0, 64, 128); fill-opacity: 1;"/></g><g class="point"><path d="M97.44,390V389.66H101.74V390Z" style="stroke-width: 0px; fill: rgb(0, 64, 128); fill-opacity: 1;"/></g><g class="point"><path d="M101.87,390V389.76H106.16V390Z" style="stroke-width: 0px; fill: rgb(0, 64, 128); fill-opacity: 1;"/></g><g class="point"><path d="M106.3,390V389.79H110.59V390Z" style="stroke-width: 0px; fill: rgb(0, 64, 128); fill-opacity: 1;"/></g><g class="point"><path d="M110.72,390V389.77H115.02V390Z" style="stroke-width: 0px; fill: rgb(0, 64, 128); fill-opacity: 1;"/></g><g class="point"><path d="M115.15,390V389.83H119.44V390Z" style="stroke-width: 0px; fill: rgb(0, 64, 128); fill-opacity: 1;"/></g><g class="point"><path d="M119.57,390V389.9H123.87V390Z" style="stroke-width: 0px; fill: rgb(0, 64, 128); fill-opacity: 1;"/></g><g class="point"><path d="M124,390V389.93H128.29V390Z" style="stroke-width: 0px; fill: rgb(0, 64, 128); fill-opacity: 1;"/></g><g class="point"><path d="M128.43,390V389.93H132.72V390Z" style="stroke-width: 0px; fill: rgb(0, 64, 128); fill-opacity: 1;"/></g><g class="point"><path d="M132.85,390V389.93H137.15V390Z" style="stroke-width: 0px; fill: rgb(0, 64, 128); fill-opacity: 1;"/></g><g class="point"><path d="M137.28,390V389.97H141.57V390Z" style="stroke-width: 0px; fill: rgb(0, 64, 128); fill-opacity: 1;"/></g><g class="point"><path d="M141.71,390V389.98H146V390Z" style="stroke-width: 0px; fill: rgb(0, 64, 128); fill-opacity: 1;"/></g><g class="point"><path d="M146.13,390V389.97H150.43V390Z" style="stroke-width: 0px; fill: rgb(0, 64, 128); fill-opacity: 1;"/></g><g class="point"><path d="M150.56,390V389.97H154.85V390Z" style="stroke-width: 0px; fill: rgb(0, 64, 128); fill-opacity: 1;"/></g><g class="point"><path d="M154.98,390V389.99H159.28V390Z" style="stroke-width: 0px; fill: rgb(0, 64, 128); fill-opacity: 1;"/></g><g class="point"><path d="M159.41,390V389.98H163.7V390Z" style="stroke-width: 0px; fill: rgb(0, 64, 128); fill-opacity: 1;"/></g><g class="point"><path d="M163.84,390V389.97H168.13V390Z" style="stroke-width: 0px; fill: rgb(0, 64, 128); fill-opacity: 1;"/></g><g class="point"><path d="M168.26,390V389.99H172.56V390Z" style="stroke-width: 0px; fill: rgb(0, 64, 128); fill-opacity: 1;"/></g><g class="point"><path d="M172.69,390V389.99H176.98V390Z" style="stroke-width: 0px; fill: rgb(0, 64, 128); fill-opacity: 1;"/></g><g class="point"><path d="M177.12,390V389.99H181.41V390Z" style="stroke-width: 0px; fill: rgb(0, 64, 128); fill-opacity: 1;"/></g><g class="point"><path d="M181.54,390V389.99H185.84V390Z" style="stroke-width: 0px; fill: rgb(0, 64, 128); fill-opacity: 1;"/></g><g class="point"><path d="M185.97,390V389.99H190.26V390Z" style="stroke-width: 0px; fill: rgb(0, 64, 128); fill-opacity: 1;"/></g><g class="point"><path d="M190.39,390V389.99H194.69V390Z" style="stroke-width: 0px; fill: rgb(0, 64, 128); fill-opacity: 1;"/></g><g class="point"><path d="M194.82,390V389.99H199.11V390Z" style="stroke-width: 0px; fill: rgb(0, 64, 128); fill-opacity: 1;"/></g><g class="point"><path d="M199.25,390V389.99H203.54V390Z" style="stroke-width: 0px; fill: rgb(0, 64, 128); fill-opacity: 1;"/></g><g class="point"><path d="M216.95,390V389.99H221.25V390Z" style="stroke-width: 0px; fill: rgb(0, 64, 128); fill-opacity: 1;"/></g><g class="point"><path d="M225.8,390V389.99H230.1V390Z" style="stroke-width: 0px; fill: rgb(0, 64, 128); fill-opacity: 1;"/></g><g class="point"><path d="M239.08,390V389.99H243.38V390Z" style="stroke-width: 0px; fill: rgb(0, 64, 128); fill-opacity: 1;"/></g><g class="point"><path d="M252.36,390V389.99H256.65V390Z" style="stroke-width: 0px; fill: rgb(0, 64, 128); fill-opacity: 1;"/></g><g class="point"><path d="M261.21,390V389.99H265.51V390Z" style="stroke-width: 0px; fill: rgb(0, 64, 128); fill-opacity: 1;"/></g><g class="point"><path d="M296.62,390V389.99H300.92V390Z" style="stroke-width: 0px; fill: rgb(0, 64, 128); fill-opacity: 1;"/></g><g class="point"><path d="M349.74,390V389.99H354.03V390Z" style="stroke-width: 0px; fill: rgb(0, 64, 128); fill-opacity: 1;"/></g><g class="point"><path d="M376.3,390V389.99H380.59V390Z" style="stroke-width: 0px; fill: rgb(0, 64, 128); fill-opacity: 1;"/></g><g class="point"><path d="M469.25,390V389.99H473.54V390Z" style="stroke-width: 0px; fill: rgb(0, 64, 128); fill-opacity: 1;"/></g><g class="point"><path d="M535.64,390V389.99H539.93V390Z" style="stroke-width: 0px; fill: rgb(0, 64, 128); fill-opacity: 1;"/></g></g></g></g><g class="boxlayer"/><g class="scatterlayer"/></g><g class="overplot"/><path class="xlines crisp" transform="translate(80,10)" d="M-5,394.5h550" style="fill: none; stroke-width: 1px; stroke: rgb(0, 0, 0); stroke-opacity: 0;"/><path class="ylines crisp" transform="translate(80,10)" d="M-4.5,-5v399" stroke-width="1px" style="fill: none; stroke: rgb(0, 0, 0); stroke-opacity: 0;"/><g class="overlines"/><g class="xaxislayer" transform="translate(80,10)"><g class="xtick" data-bb="881"><text text-anchor="middle" x="0" y="414" transform="translate(0,0)" style="font-family: Arial, sans-serif; font-size: 18px; fill: rgb(68, 68, 68); fill-opacity: 1; visibility: visible; white-space: pre;" data-bb="873">0</text></g><g class="xtick" data-bb="882"><text text-anchor="middle" x="0" y="414" transform="translate(88.52,0)" style="font-family: Arial, sans-serif; font-size: 18px; fill: rgb(68, 68, 68); fill-opacity: 1; visibility: visible; white-space: pre;" data-bb="874">20k</text></g><g class="xtick" data-bb="883"><text text-anchor="middle" x="0" y="414" transform="translate(177.05,0)" style="font-family: Arial, sans-serif; font-size: 18px; fill: rgb(68, 68, 68); fill-opacity: 1; visibility: visible; white-space: pre;" data-bb="875">40k</text></g><g class="xtick" data-bb="884"><text text-anchor="middle" x="0" y="414" transform="translate(265.57,0)" style="font-family: Arial, sans-serif; font-size: 18px; fill: rgb(68, 68, 68); fill-opacity: 1; visibility: visible; white-space: pre;" data-bb="876">60k</text></g><g class="xtick" data-bb="885"><text text-anchor="middle" x="0" y="414" transform="translate(354.1,0)" style="font-family: Arial, sans-serif; font-size: 18px; fill: rgb(68, 68, 68); fill-opacity: 1; visibility: visible; white-space: pre;" data-bb="877">80k</text></g><g class="xtick" data-bb="886"><text text-anchor="middle" x="0" y="414" transform="translate(442.62,0)" style="font-family: Arial, sans-serif; font-size: 18px; fill: rgb(68, 68, 68); fill-opacity: 1; visibility: visible; white-space: pre;" data-bb="878">100k</text></g><g class="xtick" data-bb="887"><text text-anchor="middle" x="0" y="414" transform="translate(531.15,0)" style="font-family: Arial, sans-serif; font-size: 18px; fill: rgb(68, 68, 68); fill-opacity: 1; visibility: visible; white-space: pre;" data-bb="879">120k</text></g></g><g class="yaxislayer" transform="translate(80,10)"><g class="ytick" data-bb="889"><text text-anchor="end" x="-6" y="9" transform="translate(0,390)" style="font-family: Arial, sans-serif; font-size: 18px; fill: rgb(68, 68, 68); fill-opacity: 1; visibility: visible; white-space: pre;">0</text></g><g class="ytick" data-bb="890"><text text-anchor="end" x="-6" y="9" transform="translate(0,322.9)" style="font-family: Arial, sans-serif; font-size: 18px; fill: rgb(68, 68, 68); fill-opacity: 1; visibility: visible; white-space: pre;">10k</text></g><g class="ytick" data-bb="891"><text text-anchor="end" x="-6" y="9" transform="translate(0,255.81)" style="font-family: Arial, sans-serif; font-size: 18px; fill: rgb(68, 68, 68); fill-opacity: 1; visibility: visible; white-space: pre;">20k</text></g><g class="ytick" data-bb="892"><text text-anchor="end" x="-6" y="9" transform="translate(0,188.71)" style="font-family: Arial, sans-serif; font-size: 18px; fill: rgb(68, 68, 68); fill-opacity: 1; visibility: visible; white-space: pre;">30k</text></g><g class="ytick" data-bb="893"><text text-anchor="end" x="-6" y="9" transform="translate(0,121.62)" style="font-family: Arial, sans-serif; font-size: 18px; fill: rgb(68, 68, 68); fill-opacity: 1; visibility: visible; white-space: pre;">40k</text></g><g class="ytick" data-bb="894"><text text-anchor="end" x="-6" y="9" transform="translate(0,54.52)" style="font-family: Arial, sans-serif; font-size: 18px; fill: rgb(68, 68, 68); fill-opacity: 1; visibility: visible; white-space: pre;">50k</text></g></g><g class="overaxes"/></g></g><g class="ternarylayer"/><g class="layer-above"><g class="imagelayer"/><g class="shapelayer"/></g><g class="pielayer"/><g class="glimages"/><g class="geoimages"/><text class="js-plot-link-container" y="491" text-anchor="end" x="693" style="font-family: 'Open Sans', Arial, sans-serif; font-size: 12px; fill: rgb(68, 68, 68); pointer-events: all; visibility: visible;"><tspan class="js-link-to-tool"/><tspan class="js-link-spacer"/><tspan class="js-sourcelinks"/></text><g class="infolayer"><g class="g-gtitle"/><g class="g-xtitle" data-bb="880"><text class="xtitle" x="350" y="476" text-anchor="middle" style="font-family: 'Open Sans', verdana, arial, sans-serif; font-size: 22px; fill: rgb(68, 68, 68); opacity: 1; font-weight: normal; white-space: pre; visibility: visible;">Loss (Severity)</text></g><g class="g-ytitle" data-bb="888"><text class="ytitle" transform="rotate(-90,26,205) translate(0, 0)" x="26" y="205" text-anchor="middle" style="font-family: 'Open Sans', verdana, arial, sans-serif; font-size: 22px; fill: rgb(68, 68, 68); opacity: 1; font-weight: normal; white-space: pre; visibility: visible;">Number of Counts</text></g></g></svg>